<svg width="162" height="162" viewBox="0 0 162 162" fill="none" xmlns="http://www.w3.org/2000/svg">
<path d="M50.2929 51.7071L2.29289 3.7071M161 138H49M6 113H108C110.761 113 113 110.761 113 108V6C113 3.23858 110.761 1 108 1H6C3.23858 1 1 3.23858 1 6V108C1 110.761 3.23858 113 6 113ZM54 161H156C158.761 161 161 158.761 161 156V54C161 51.2386 158.761 49 156 49H54C51.2386 49 49 51.2386 49 54V156C49 158.761 51.2386 161 54 161ZM103 81C103 93.1503 93.1503 103 81 103C68.8497 103 59 93.1503 59 81C59 68.8497 68.8497 59 81 59C93.1503 59 103 68.8497 103 81Z" stroke="url(#paint0_linear_1_1798)"/>
<defs>
<linearGradient id="paint0_linear_1_1798" x1="0.999995" y1="193" x2="117.255" y2="10.9603" gradientUnits="userSpaceOnUse">
<stop stop-color="#EDFD33"/>
<stop offset="1" stop-color="white"/>
</linearGradient>
</defs>
</svg>
