asset7-2
width: 162px;
height: 162px;
<svg xmlns="http://www.w3.org/2000/svg" width="162" height="162" viewBox="0 0 162 162" fill="none">
<g clip-path="url(#clip0_19_333)">
<path d="M95.6523 93.3593L2.65229 3.3593M95.7709 128.556L159.771 95.5556M116 127C116 138.046 107.046 147 96 147C84.9543 147 76 138.046 76 127C76 115.954 84.9543 107 96 107C107.046 107 116 115.954 116 127ZM6 161H91C93.7614 161 96 158.761 96 156V6C96 3.23858 93.7614 1 91 1H6C3.23858 1 1 3.23858 1 6V156C1 158.761 3.23857 161 6 161ZM41 161H156C158.761 161 161 158.761 161 156V98C161 95.2386 158.761 93 156 93H41C38.2386 93 36 95.2386 36 98V156C36 158.761 38.2386 161 41 161Z" stroke="url(#paint0_linear_19_333)"/>
</g>
<defs>
<linearGradient id="paint0_linear_19_333" x1="1" y1="193" x2="117.255" y2="10.9603" gradientUnits="userSpaceOnUse">
<stop stop-color="#EDFD33"/>
<stop offset="1" stop-color="white"/>
</linearGradient>
<clipPath id="clip0_19_333">
<rect width="162" height="162" fill="white"/>
</clipPath>
</defs>
</svg>