<svg xmlns="http://www.w3.org/2000/svg" width="189" height="38" viewBox="0 0 189 38" fill="none">
  <g clip-path="url(#clip0_19_386)">
    <mask id="mask0_19_386" style="mask-type:luminance" maskUnits="userSpaceOnUse" x="0" y="0" width="189" height="38">
      <path d="M188.156 0H0.15625V38H188.156V0Z" fill="white"/>
    </mask>
    <g mask="url(#mask0_19_386)">
      <g opacity="0.45">
        <path d="M51.0073 12.3752H53.0511L58.7698 25.6215H56.0698L54.8323 22.5905H49.076L47.876 25.6215H45.2322L51.0073 12.3752ZM54.0073 20.57L51.9636 15.1817L49.8822 20.57H54.0073Z" fill="white"/>
        <path d="M61.304 12.3752H64.0228L67.6415 22.3847L71.3727 12.3752H73.923L68.5603 25.6215H66.5167L61.304 12.3752Z" fill="white"/>
        <path d="M82.3659 12.3752H84.4102L90.1284 25.6215H87.4285L86.1913 22.5905H80.4347L79.2346 25.6215H76.5911L82.3659 12.3752ZM85.366 20.57L83.3224 15.1817L81.2411 20.57H85.366Z" fill="white"/>
        <path d="M95.354 12.3752H97.7166V23.4886H103.36V25.6215H95.354V12.3752Z" fill="white"/>
        <path d="M113.12 12.3752H115.165L120.883 25.6215H118.183L116.946 22.5905H111.189L109.989 25.6215H107.346L113.12 12.3752ZM116.121 20.57L114.077 15.1817L111.996 20.57H116.121Z" fill="white"/>
        <path d="M126.109 12.3752H129.24L135.671 22.2164H135.709V12.3752H138.071V25.6215H135.071L128.508 15.4623H128.471V25.6215H126.109V12.3752Z" fill="white"/>
        <path d="M153.894 15.4808C153.407 14.957 152.932 14.6078 152.469 14.4331C152.019 14.2585 151.563 14.1712 151.101 14.1712C150.413 14.1712 149.788 14.2959 149.225 14.5454C148.676 14.7824 148.201 15.1191 147.8 15.5557C147.4 15.9798 147.088 16.4787 146.863 17.0525C146.65 17.6262 146.544 18.2436 146.544 18.9046C146.544 19.6156 146.65 20.2705 146.863 20.8691C147.088 21.4679 147.4 21.9855 147.8 22.422C148.201 22.8586 148.676 23.2016 149.225 23.4511C149.788 23.7005 150.413 23.8253 151.101 23.8253C151.638 23.8253 152.157 23.7005 152.657 23.4511C153.169 23.1891 153.644 22.7775 154.082 22.2162L156.031 23.6007C155.432 24.4239 154.701 25.0226 153.838 25.3968C152.975 25.771 152.057 25.9581 151.082 25.9581C150.057 25.9581 149.113 25.796 148.251 25.4717C147.4 25.1349 146.663 24.6672 146.038 24.0685C145.425 23.4573 144.944 22.7276 144.594 21.8794C144.244 21.0313 144.069 20.0896 144.069 19.0544C144.069 17.9942 144.244 17.0337 144.594 16.1731C144.944 15.3 145.425 14.5578 146.038 13.9467C146.663 13.3355 147.4 12.8678 148.251 12.5435C149.113 12.2067 150.057 12.0383 151.082 12.0383C151.982 12.0383 152.813 12.2005 153.575 12.5248C154.35 12.8366 155.069 13.3729 155.732 14.1338L153.894 15.4808Z" fill="white"/>
        <path d="M161.368 12.3752H163.73V17.6513H169.936V12.3752H172.299V25.6215H169.936V19.7841H163.73V25.6215H161.368V12.3752Z" fill="white"/>
        <path d="M179.015 12.3752H187.809V14.5081H181.378V17.7636H187.472V19.8964H181.378V23.4886H188.147V25.6215H179.015V12.3752Z" fill="white"/>
        <path fill-rule="evenodd" clip-rule="evenodd" d="M38.2389 19C38.2389 29.4934 29.7138 38 19.1976 38C8.68135 38 0.15625 29.4934 0.15625 19C0.15625 8.5066 8.68135 0 19.1976 0C29.7138 0 38.2389 8.5066 38.2389 19ZM13.8018 26.5606H10.1065C9.32999 26.5606 8.9464 26.5606 8.71249 26.4113C8.45992 26.2479 8.30553 25.9772 8.28681 25.6785C8.2728 25.4031 8.46457 25.067 8.84816 24.3949L17.9725 8.34684C18.3608 7.66537 18.5572 7.32466 18.8052 7.19862C19.0718 7.0633 19.3899 7.0633 19.6565 7.19862C19.9044 7.32466 20.1009 7.66537 20.4892 8.34684L22.3649 11.6141L22.3745 11.6308C22.7938 12.3619 23.0065 12.7326 23.0993 13.1217C23.2022 13.5465 23.2022 13.9946 23.0993 14.4193C23.0058 14.8114 22.7952 15.1848 22.3696 15.927L17.5768 24.3809L17.5644 24.4026C17.1422 25.1397 16.9283 25.5132 16.6319 25.7952C16.3091 26.1032 15.9209 26.3272 15.4952 26.4533C15.107 26.5606 14.6719 26.5606 13.8018 26.5606ZM23.1339 26.5611H28.4291C29.2103 26.5611 29.6032 26.5611 29.8371 26.4071C30.0897 26.2437 30.2487 25.9683 30.2628 25.6696C30.2763 25.4033 30.0887 25.0802 29.721 24.4472C29.7085 24.4255 29.6957 24.4036 29.6827 24.3813L27.0305 19.8538L27.0003 19.8029C26.6276 19.1739 26.4393 18.8563 26.1978 18.7336C25.9312 18.5982 25.6178 18.5982 25.3512 18.7336C25.1079 18.8596 24.9114 19.191 24.5232 19.8584L21.8803 24.386L21.8713 24.4016C21.4844 25.068 21.291 25.401 21.305 25.6743C21.3237 25.973 21.478 26.2484 21.7306 26.4117C21.9598 26.5611 22.3527 26.5611 23.1339 26.5611Z" fill="white"/>
      </g>
    </g>
  </g>
  <defs>
    <clipPath id="clip0_19_386">
      <rect width="189" height="38" fill="white"/>
    </clipPath>
  </defs>
</svg>