<svg xmlns="http://www.w3.org/2000/svg" width="28" height="28" viewBox="0 0 28 28" fill="none">
  <path d="M9.22251 14.81L9.21501 18.3275C9.21501 19.28 9.95001 20.3 10.85 20.6L13.2425 21.395C13.655 21.53 14.3375 21.53 14.7575 21.395L17.15 20.6C18.05 20.3 18.785 19.28 18.785 18.3275V14.8475M21.05 16.25V11.75M12.5375 6.8975L8.02251 9.845C6.57501 10.79 6.57501 12.905 8.02251 13.85L12.5375 16.7975C13.3475 17.33 14.6825 17.33 15.4925 16.7975L19.985 13.85C21.425 12.905 21.425 10.7975 19.985 9.8525L15.4925 6.905C14.6825 6.365 13.3475 6.365 12.5375 6.8975Z" stroke="white" stroke-width="1.5" stroke-linecap="round" stroke-linejoin="round"/>
</svg>