<svg xmlns="http://www.w3.org/2000/svg" width="263" height="207" viewBox="0 0 263 207" fill="none">
  <path d="M194 6V64C194 66.7614 191.761 69 189 69H6C3.23858 69 1 66.7614 1 64V6C1 3.23858 3.23858 1 6 1H189C191.761 1 194 3.23858 194 6ZM194 6V133C194 135.761 196.239 138 199 138M194 6C194 3.23858 196.239 1 199 1H257C259.761 1 262 3.23858 262 6V133C262 135.761 259.761 138 257 138M199 138H257M199 138C196.239 138 194 140.239 194 143V201C194 203.761 196.239 206 199 206H257C259.761 206 262 203.761 262 201V143C262 140.239 259.761 138 257 138M126.646 137.646L260.646 3.64644M194 137.5C194 175.332 163.332 206 125.5 206C87.6685 206 57 175.332 57 137.5C57 99.6685 87.6685 69 125.5 69C163.332 69 194 99.6685 194 137.5ZM102 119C102 124.523 97.5228 129 92 129C86.4772 129 82 124.523 82 119C82 113.477 86.4772 109 92 109C97.5228 109 102 113.477 102 119ZM53 137H111C113.761 137 116 134.761 116 132V30C116 27.2386 113.761 25 111 25H53C50.2386 25 48 27.2386 48 30V132C48 134.761 50.2386 137 53 137Z" stroke="url(#paint0_linear_19_189)"/>
  <defs>
    <linearGradient id="paint0_linear_19_189" x1="1" y1="247" x2="132.597" y2="-15.3534" gradientUnits="userSpaceOnUse">
      <stop stop-color="#EDFD33"/>
      <stop offset="1" stop-color="white"/>
    </linearGradient>
  </defs>
</svg>