<svg xmlns="http://www.w3.org/2000/svg" width="214" height="38" viewBox="0 0 214 38" fill="none">
  <g opacity="0.45">
    <path d="M42.9281 10.6281C35.2094 10.6281 29.1531 16.5063 29.1531 24.3438C29.1531 32.1813 35.0312 38 42.9281 38C50.825 38 56.8219 32.0625 56.8219 24.2844C56.8219 16.5063 50.9438 10.6281 42.9281 10.6281ZM42.9875 32.3594C38.5938 32.3594 35.3875 28.9156 35.3875 24.3438C35.3875 19.7125 38.5344 16.2687 42.9875 16.2687C47.4406 16.2687 50.6469 19.7125 50.6469 24.3438C50.6469 28.975 47.3813 32.3594 42.9875 32.3594ZM58.4844 16.5656H62.3438V37.4656H68.4594V11.1031H58.4844V16.5656ZM13.7156 16.2687C16.9219 16.2687 19.475 18.2281 20.4844 21.1969H26.9563C25.7688 14.8438 20.5438 10.5687 13.775 10.5687C6.05625 10.6281 0 16.4469 0 24.3438C0 32.2406 5.87813 38 13.775 38C20.425 38 25.7688 33.725 26.9563 27.3125H20.4844C19.5344 30.2812 16.9813 32.3 13.775 32.3C9.32188 32.3 6.175 28.8563 6.175 24.2844C6.175 19.7125 9.2625 16.2687 13.7156 16.2687ZM175.156 21.7906L170.644 21.1375C168.506 20.8406 166.963 20.1281 166.963 18.4062C166.963 16.5656 168.981 15.675 171.653 15.675C174.622 15.675 176.522 16.9219 176.938 19.0594H182.875C182.222 13.775 178.125 10.6281 171.831 10.6281C165.359 10.6281 161.025 13.9531 161.025 18.6437C161.025 23.1562 163.816 25.7094 169.516 26.5406L174.028 27.1938C176.225 27.4906 177.472 28.3813 177.472 29.9844C177.472 32.0625 175.334 32.9531 172.366 32.9531C168.744 32.9531 166.666 31.4688 166.369 29.2125H160.312C160.906 34.3781 164.944 38 172.306 38C179.016 38 183.469 34.9125 183.469 29.6875C183.469 24.9969 180.203 22.5625 175.156 21.7906ZM65.3719 0.2375C63.1156 0.2375 61.4531 1.84063 61.4531 4.09688C61.4531 6.35313 63.1156 7.95625 65.3719 7.95625C67.6281 7.95625 69.2906 6.35313 69.2906 4.09688C69.2906 1.84063 67.6281 0.2375 65.3719 0.2375ZM155.503 20.1281C155.503 14.4281 152 10.5687 144.637 10.5687C137.691 10.5687 133.772 14.0719 133 19.475H139.116C139.413 17.3969 141.075 15.675 144.519 15.675C147.666 15.675 149.15 17.0406 149.15 18.7625C149.15 20.9594 146.359 21.4937 142.856 21.85C138.166 22.3844 132.288 23.9875 132.288 30.1031C132.288 34.8531 135.791 37.8812 141.431 37.8812C145.825 37.8812 148.616 36.0406 149.981 33.1312C150.159 35.7437 152.119 37.4062 154.85 37.4062H158.412V32.0625H155.384L155.503 20.1281ZM149.447 26.7781C149.447 30.2812 146.359 32.8937 142.619 32.8937C140.303 32.8937 138.344 31.9438 138.344 29.8656C138.344 27.2531 141.491 26.5406 144.341 26.2437C147.131 26.0063 148.616 25.3531 149.387 24.225V26.7781H149.447ZM116.85 10.6281C113.406 10.6281 110.556 12.0531 108.537 14.4281V0H102.422V37.4656H108.478V34.0219C110.497 36.5156 113.466 38 116.909 38C124.272 38 129.853 32.1813 129.853 24.3438C129.853 16.5063 124.153 10.6281 116.85 10.6281ZM115.959 32.3594C111.566 32.3594 108.359 28.9156 108.359 24.3438C108.359 19.7719 111.625 16.2687 116.019 16.2687C120.472 16.2687 123.619 19.7125 123.619 24.3438C123.559 28.9156 120.353 32.3594 115.959 32.3594ZM87.6969 10.6281C83.7188 10.6281 81.1062 12.2312 79.5625 14.5469V11.1031H73.4469V37.4656H79.5625V23.1562C79.5625 19.1187 82.1156 16.2687 85.9156 16.2687C89.4187 16.2687 91.675 18.7625 91.675 22.3844V37.4656H97.7906V21.9094C97.85 15.3188 94.4062 10.6281 87.6969 10.6281ZM212.741 23.4531C212.741 15.9125 207.219 10.6281 199.797 10.6281C191.9 10.6281 186.141 16.5656 186.141 24.3438C186.141 32.5375 192.316 38 199.916 38C206.328 38 211.316 34.2 212.622 28.8562H206.209C205.259 31.2312 203.062 32.5375 200.034 32.5375C196.116 32.5375 193.147 30.1031 192.434 25.8281H212.741V23.4531ZM192.791 21.4344C193.741 17.7531 196.531 15.9719 199.678 15.9719C203.181 15.9719 205.794 17.9312 206.447 21.4344H192.791Z" fill="white"/>
  </g>
</svg>