<svg xmlns="http://www.w3.org/2000/svg" width="64" height="52" viewBox="0 0 64 52" fill="none">
<path d="M0 35.8589V52H20.6718V35.7672C20.6718 29.8366 21.4443 24.6091 22.9893 20.0847C24.5342 15.4991 26.4809 11.2193 28.8293 7.24515L16.9639 0C14.5537 2.13992 12.3289 4.61611 10.2895 7.42857C8.25018 10.241 6.458 13.2369 4.91303 16.4162C3.36805 19.5955 2.16297 22.8665 1.29778 26.2293C0.432594 29.5309 0 32.7407 0 35.8589ZM35.1707 35.8589V52H55.8425V35.7672C55.8425 29.8366 56.615 24.6091 58.16 20.0847C59.705 15.4991 61.6516 11.2193 64 7.24515L52.1346 0C49.7244 2.13992 47.4996 4.61611 45.4603 7.42857C43.4209 10.241 41.6287 13.2369 40.0838 16.4162C38.5388 19.5955 37.3337 22.8665 36.4685 26.2293C35.6033 29.5309 35.1707 32.7407 35.1707 35.8589Z" fill="url(#paint0_linear_1_680)"/>
<defs>
<linearGradient id="paint0_linear_1_680" x1="32" y1="-10" x2="31.8675" y2="56.9523" gradientUnits="userSpaceOnUse">
<stop stop-color="#EDFD33"/>
<stop offset="1" stop-color="#06101A"/>
</linearGradient>
</defs>
</svg>