<svg xmlns="http://www.w3.org/2000/svg" width="173" height="31" viewBox="0 0 173 31" fill="none">
<g clipPath="url(#clip0_19_50)">
<path d="M12.056 23.8427C10.392 23.8427 8.84534 23.5547 7.41601 22.9787C6.00801 22.3814 4.76001 21.5601 3.67201 20.5147C2.60534 19.4481 1.77334 18.2214 1.17601 16.8347C0.600012 15.4267 0.312012 13.9121 0.312012 12.2907C0.312012 10.6694 0.600012 9.16538 1.17601 7.77871C1.77334 6.37071 2.60534 5.14405 3.67201 4.09871C4.76001 3.03205 6.01868 2.21071 7.44801 1.63471C8.87734 1.03738 10.4133 0.738708 12.056 0.738708C13.2293 0.738708 14.3707 0.898708 15.48 1.21871C16.6107 1.51738 17.6453 1.95471 18.584 2.53071C19.544 3.10671 20.376 3.80005 21.08 4.61071L18.84 6.91471C18.008 5.91205 16.9947 5.15471 15.8 4.64271C14.6053 4.10938 13.3573 3.84271 12.056 3.84271C10.8613 3.84271 9.75201 4.05605 8.72801 4.48271C7.72534 4.90938 6.85068 5.50671 6.10401 6.27471C5.35734 7.02138 4.77068 7.90671 4.34401 8.93071C3.93868 9.95471 3.73601 11.0747 3.73601 12.2907C3.73601 13.4854 3.93868 14.5947 4.34401 15.6187C4.77068 16.6427 5.36801 17.5387 6.13601 18.3067C6.90401 19.0747 7.80001 19.6721 8.82401 20.0987C9.84801 20.5254 10.9573 20.7387 12.152 20.7387C13.4533 20.7387 14.68 20.4827 15.832 19.9707C17.0053 19.4374 17.9973 18.6907 18.808 17.7307L21.016 19.9707C20.2693 20.7601 19.416 21.4534 18.456 22.0507C17.5173 22.6267 16.4933 23.0747 15.384 23.3947C14.296 23.6934 13.1867 23.8427 12.056 23.8427ZM23.9193 23.4907V7.20271H27.1193V9.28271C27.6313 8.51471 28.2606 7.91738 29.0073 7.49071C29.7753 7.04271 30.6393 6.81871 31.5993 6.81871C32.2606 6.84004 32.8046 6.93604 33.2313 7.10671V9.98671C32.9326 9.85871 32.6233 9.77338 32.3033 9.73071C31.9833 9.66671 31.6633 9.63471 31.3433 9.63471C30.4046 9.63471 29.5726 9.89071 28.8473 10.4027C28.1219 10.8934 27.5459 11.6187 27.1193 12.5787V23.4907H23.9193ZM37.1948 30.3707C36.8534 30.3707 36.5334 30.3494 36.2348 30.3067C35.9361 30.2854 35.6908 30.2427 35.4988 30.1787V27.3627C35.8828 27.4481 36.3521 27.4907 36.9068 27.4907C38.4001 27.4907 39.4774 26.6907 40.1388 25.0907L40.8428 23.5227L34.3148 7.20271H37.8668L42.6028 19.6187L47.8508 7.20271H51.3068L43.4348 25.5067C42.9228 26.6587 42.3788 27.5867 41.8028 28.2907C41.2268 29.0161 40.5654 29.5387 39.8188 29.8587C39.0721 30.2001 38.1974 30.3707 37.1948 30.3707ZM53.2943 30.0187V7.20271H56.4623V8.77071C57.8276 7.55471 59.4916 6.94671 61.4543 6.94671C62.9903 6.94671 64.3769 7.32005 65.6143 8.06671C66.8729 8.81338 67.8649 9.81605 68.5903 11.0747C69.3156 12.3334 69.6783 13.7521 69.6783 15.3307C69.6783 16.9094 69.3049 18.3387 68.5583 19.6187C67.8329 20.8774 66.8409 21.8801 65.5823 22.6267C64.3449 23.3734 62.9476 23.7467 61.3903 23.7467C60.4943 23.7467 59.6303 23.6081 58.7983 23.3307C57.9663 23.0321 57.1983 22.6161 56.4943 22.0827V30.0187H53.2943ZM61.0383 20.9627C62.0836 20.9627 63.0116 20.7174 63.8223 20.2267C64.6543 19.7361 65.3156 19.0747 65.8063 18.2427C66.2969 17.3894 66.5423 16.4294 66.5423 15.3627C66.5423 14.2961 66.2969 13.3361 65.8063 12.4827C65.3156 11.6294 64.6543 10.9574 63.8223 10.4667C63.0116 9.97605 62.0836 9.73071 61.0383 9.73071C60.1209 9.73071 59.2676 9.90138 58.4783 10.2427C57.6889 10.5841 57.0276 11.0641 56.4943 11.6827V19.0427C57.0276 19.6401 57.6889 20.1094 58.4783 20.4507C59.2889 20.7921 60.1423 20.9627 61.0383 20.9627ZM78.7703 23.7787C77.1916 23.7787 75.9863 23.4161 75.1543 22.6907C74.3223 21.9441 73.9062 20.8667 73.9062 19.4587V9.89071H70.4503V7.20271H73.9062V3.04271L77.0743 2.27471V7.20271H81.8743V9.89071H77.0743V18.7227C77.0743 19.5547 77.2556 20.1521 77.6183 20.5147C78.0023 20.8561 78.6209 21.0267 79.4743 21.0267C79.9223 21.0267 80.3169 20.9947 80.6583 20.9307C81.0209 20.8667 81.4049 20.7707 81.8103 20.6427V23.3307C81.3836 23.4801 80.8823 23.5867 80.3063 23.6507C79.7516 23.7361 79.2396 23.7787 78.7703 23.7787ZM91.7258 23.8107C90.1471 23.8107 88.7071 23.4374 87.4058 22.6907C86.1258 21.9441 85.1124 20.9307 84.3658 19.6507C83.6191 18.3707 83.2458 16.9414 83.2458 15.3627C83.2458 13.7841 83.6191 12.3547 84.3658 11.0747C85.1124 9.79471 86.1258 8.78138 87.4058 8.03471C88.7071 7.26671 90.1471 6.88271 91.7258 6.88271C93.3258 6.88271 94.7658 7.26671 96.0458 8.03471C97.3258 8.78138 98.3391 9.79471 99.0858 11.0747C99.8324 12.3547 100.206 13.7841 100.206 15.3627C100.206 16.9414 99.8324 18.3707 99.0858 19.6507C98.3391 20.9307 97.3258 21.9441 96.0458 22.6907C94.7658 23.4374 93.3258 23.8107 91.7258 23.8107ZM91.7258 20.9947C92.7284 20.9947 93.6351 20.7494 94.4458 20.2587C95.2564 19.7467 95.8964 19.0641 96.3658 18.2107C96.8351 17.3574 97.0698 16.3974 97.0698 15.3307C97.0698 14.2854 96.8244 13.3467 96.3338 12.5147C95.8644 11.6614 95.2244 10.9787 94.4138 10.4667C93.6244 9.95471 92.7284 9.69871 91.7258 9.69871C90.7231 9.69871 89.8164 9.95471 89.0058 10.4667C88.2164 10.9787 87.5764 11.6614 87.0858 12.5147C86.6164 13.3467 86.3818 14.2854 86.3818 15.3307C86.3818 16.3974 86.6164 17.3574 87.0858 18.2107C87.5551 19.0641 88.1951 19.7467 89.0058 20.2587C89.8164 20.7494 90.7231 20.9947 91.7258 20.9947ZM114.368 23.8427C112.725 23.8427 111.189 23.5441 109.76 22.9467C108.352 22.3494 107.114 21.5281 106.048 20.4827C104.981 19.4161 104.149 18.1894 103.552 16.8027C102.954 15.3947 102.656 13.8907 102.656 12.2907C102.656 10.6907 102.944 9.19738 103.52 7.81071C104.117 6.40271 104.949 5.17604 106.016 4.13071C107.082 3.06405 108.32 2.23205 109.728 1.63471C111.136 1.03738 112.661 0.738708 114.304 0.738708C116.074 0.738708 117.749 1.08005 119.328 1.76271C120.906 2.44538 122.24 3.39471 123.328 4.61071L121.024 6.85071C120.213 5.89071 119.21 5.15471 118.016 4.64271C116.842 4.10938 115.605 3.84271 114.304 3.84271C113.13 3.84271 112.042 4.05605 111.04 4.48271C110.058 4.90938 109.194 5.50671 108.448 6.27471C107.701 7.02138 107.114 7.90671 106.688 8.93071C106.282 9.95471 106.08 11.0747 106.08 12.2907C106.08 13.4854 106.282 14.6054 106.688 15.6507C107.114 16.6747 107.701 17.5707 108.448 18.3387C109.216 19.1067 110.101 19.7041 111.104 20.1307C112.106 20.5574 113.194 20.7707 114.368 20.7707C115.69 20.7707 116.885 20.4934 117.952 19.9387C119.04 19.3841 119.925 18.6267 120.608 17.6667C121.29 16.6854 121.706 15.5867 121.856 14.3707H114.4V11.4267H125.376V12.5787C125.376 14.1787 125.098 15.6614 124.544 17.0267C123.989 18.3921 123.21 19.5867 122.208 20.6107C121.226 21.6347 120.064 22.4347 118.72 23.0107C117.376 23.5654 115.925 23.8427 114.368 23.8427ZM133.665 23.7787C132.492 23.7787 131.457 23.5761 130.561 23.1707C129.665 22.7441 128.961 22.1574 128.449 21.4107C127.937 20.6641 127.681 19.8001 127.681 18.8187C127.681 17.2827 128.268 16.0774 129.441 15.2027C130.614 14.3067 132.225 13.8587 134.273 13.8587C135.873 13.8587 137.356 14.1681 138.721 14.7867V13.0587C138.721 11.8854 138.38 11.0107 137.697 10.4347C137.036 9.85871 136.054 9.57071 134.753 9.57071C134.006 9.57071 133.228 9.68805 132.417 9.92271C131.606 10.1361 130.7 10.4774 129.697 10.9467L128.513 8.54671C129.75 7.97071 130.902 7.55471 131.969 7.29871C133.036 7.02138 134.113 6.88271 135.201 6.88271C137.313 6.88271 138.945 7.38404 140.097 8.38671C141.27 9.38938 141.857 10.8187 141.857 12.6747V23.4907H138.721V22.0827C137.996 22.6587 137.217 23.0854 136.385 23.3627C135.553 23.6401 134.646 23.7787 133.665 23.7787ZM130.753 18.7547C130.753 19.5441 131.084 20.1841 131.745 20.6747C132.428 21.1654 133.313 21.4107 134.401 21.4107C135.254 21.4107 136.033 21.2827 136.737 21.0267C137.462 20.7707 138.124 20.3761 138.721 19.8427V17.0907C138.102 16.7281 137.452 16.4721 136.769 16.3227C136.108 16.1521 135.361 16.0667 134.529 16.0667C133.356 16.0667 132.428 16.3121 131.745 16.8027C131.084 17.2721 130.753 17.9227 130.753 18.7547ZM152.052 23.7787C150.473 23.7787 149.268 23.4161 148.436 22.6907C147.604 21.9441 147.188 20.8667 147.188 19.4587V9.89071H143.732V7.20271H147.188V3.04271L150.356 2.27471V7.20271H155.156V9.89071H150.356V18.7227C150.356 19.5547 150.537 20.1521 150.9 20.5147C151.284 20.8561 151.902 21.0267 152.756 21.0267C153.204 21.0267 153.598 20.9947 153.94 20.9307C154.302 20.8667 154.686 20.7707 155.092 20.6427V23.3307C154.665 23.4801 154.164 23.5867 153.588 23.6507C153.033 23.7361 152.521 23.7787 152.052 23.7787ZM165.071 23.7787C163.471 23.7787 162.02 23.4054 160.719 22.6587C159.439 21.9121 158.415 20.8987 157.647 19.6187C156.9 18.3387 156.527 16.9094 156.527 15.3307C156.527 13.7734 156.89 12.3654 157.615 11.1067C158.34 9.82671 159.322 8.81338 160.559 8.06671C161.796 7.29871 163.172 6.91471 164.687 6.91471C166.202 6.91471 167.546 7.29871 168.719 8.06671C169.892 8.81338 170.82 9.83738 171.503 11.1387C172.207 12.4187 172.559 13.8694 172.559 15.4907V16.3867H159.727C159.898 17.2827 160.228 18.0827 160.719 18.7867C161.231 19.4907 161.871 20.0454 162.639 20.4507C163.428 20.8561 164.282 21.0587 165.199 21.0587C165.988 21.0587 166.746 20.9414 167.471 20.7067C168.218 20.4507 168.836 20.0881 169.327 19.6187L171.375 21.6347C170.415 22.3601 169.423 22.9041 168.399 23.2667C167.396 23.6081 166.287 23.7787 165.071 23.7787ZM159.759 13.9867H169.391C169.263 13.1334 168.964 12.3867 168.495 11.7467C168.047 11.0854 167.482 10.5734 166.799 10.2107C166.138 9.82671 165.412 9.63471 164.623 9.63471C163.812 9.63471 163.066 9.81605 162.383 10.1787C161.7 10.5414 161.124 11.0534 160.655 11.7147C160.207 12.3547 159.908 13.1121 159.759 13.9867Z" fill="white"/>
</g>
<defs>
<clipPath id="clip0_19_50">
<rect width="173" height="31" fill="white"/>
</clipPath>
</defs>
</svg>