<svg xmlns="http://www.w3.org/2000/svg" width="115" height="66" viewBox="0 0 115 66" fill="none">
  <mask id="mask0_19_344" style="mask-type:luminance" maskUnits="userSpaceOnUse" x="0" y="0" width="115" height="66">
    <path d="M114.156 0H0.15625V66H114.156V0Z" fill="white"/>
  </mask>
  <g mask="url(#mask0_19_344)">
    <path opacity="0.45" d="M75.7695 0L59.6279 11.9908L62.6545 4.88702L75.7695 0Z" fill="#F9F9F9"/>
    <path opacity="0.45" d="M38.543 0L54.5332 12.142L51.658 4.9374L38.543 0Z" fill="#F9F9F9"/>
    <path opacity="0.45" d="M69.9685 27.8611L65.6809 34.4611L74.8615 37.0306L77.4845 28.0122L69.9685 27.8611Z" fill="#F9F9F9"/>
    <path opacity="0.45" d="M36.8279 28.0122L39.4509 37.0306L48.6315 34.4611L44.3439 27.8611L36.8279 28.0122Z" fill="#F9F9F9"/>
    <path opacity="0.45" d="M48.1269 16.7266L45.5544 20.606L54.634 21.0091L54.3314 11.1343L48.1269 16.7266Z" fill="#F9F9F9"/>
    <path opacity="0.45" d="M66.1854 16.7268L59.8297 11.0337L59.6279 21.0093L68.7076 20.6062L66.1854 16.7268Z" fill="#F9F9F9"/>
    <path opacity="0.45" d="M48.6316 34.461L54.1298 31.7907L49.3882 28.0625L48.6316 34.461Z" fill="#F9F9F9"/>
    <path opacity="0.45" d="M60.1829 31.7907L65.6811 34.461L64.9245 28.0625L60.1829 31.7907Z" fill="#F9F9F9"/>
    <path opacity="0.45" d="M65.6811 34.461L60.1829 31.7908L60.6369 35.3679L60.5864 36.8793L65.6811 34.461Z" fill="#D7D7D7"/>
    <path opacity="0.45" d="M48.6316 34.461L53.7263 36.8793L53.6758 35.3679L54.1298 31.7908L48.6316 34.461Z" fill="#D7D7D7"/>
    <path opacity="0.45" d="M53.8271 25.6948L49.2368 24.3344L52.4651 22.823L53.8271 25.6948Z" fill="#3B3B3B"/>
    <path opacity="0.45" d="M60.4856 25.6947L61.8475 22.8733L65.0758 24.3847L60.4856 25.6947Z" fill="#3B3B3B"/>
    <path opacity="0.45" d="M48.6316 34.4611L49.4386 27.8611L44.344 28.0122L48.6316 34.4611Z" fill="#F8F8F8"/>
    <path opacity="0.45" d="M64.874 27.8611L65.681 34.4611L69.9686 28.0122L64.874 27.8611Z" fill="#F8F8F8"/>
    <path opacity="0.45" d="M68.7076 20.5557L59.6279 20.9587L60.4855 25.6442L61.8474 22.8228L65.0757 24.3343L68.7076 20.5557Z" fill="#F8F8F8"/>
    <path opacity="0.45" d="M49.2369 24.3343L52.4652 22.8228L53.8271 25.6442L54.6847 20.9587L45.605 20.5557L49.2369 24.3343Z" fill="#F8F8F8"/>
    <path opacity="0.45" d="M45.5544 20.6062L49.388 28.0627L49.2367 24.3344L45.5544 20.6062Z" fill="#F9F9F9"/>
    <path opacity="0.45" d="M65.0253 24.3344L64.874 28.0627L68.7076 20.6062L65.0253 24.3344Z" fill="#F9F9F9"/>
    <path opacity="0.45" d="M54.6845 21.0093L53.8269 25.6948L54.8862 31.2368L55.1385 23.9314L54.6845 21.0093Z" fill="#F9F9F9"/>
    <path opacity="0.45" d="M59.628 21.0093L59.1741 23.9314L59.3758 31.2368L60.4351 25.6948L59.628 21.0093Z" fill="#F9F9F9"/>
    <path opacity="0.45" d="M60.4856 25.6948L59.4263 31.2368L60.1829 31.791L64.9245 28.0627L65.0758 24.3345L60.4856 25.6948Z" fill="#FCFCFC"/>
    <path opacity="0.45" d="M49.2368 24.3345L49.3881 28.0627L54.1297 31.791L54.8863 31.2368L53.8271 25.6948L49.2368 24.3345Z" fill="#FCFCFC"/>
    <path opacity="0.45" d="M60.5863 36.8795L60.6368 35.368L60.2332 35.0154H54.1297L53.7262 35.368L53.7766 36.8795L48.6819 34.4612L50.4474 35.9223L54.0793 38.4413H60.2837L63.9155 35.9223L65.681 34.4612L60.5863 36.8795Z" fill="#C0C0C0"/>
    <path opacity="0.45" d="M60.1829 31.7908L59.4263 31.2366H54.9369L54.1802 31.7908L53.7263 35.3679L54.1298 35.0152H60.1829L60.5864 35.3679L60.1829 31.7908Z" fill="#3B3B3B"/>
    <path opacity="0.45" d="M76.4758 12.7969L77.8378 6.14656L75.7696 0L60.1829 11.5878L66.1856 16.6763L74.6599 19.145L76.5263 16.9282L75.7192 16.3237L77.0307 15.1145L76.0218 14.3588L77.3333 13.3511L76.4758 12.7969Z" fill="#DDDDDD"/>
    <path opacity="0.45" d="M36.4749 6.14656L37.8369 12.7969L36.9794 13.4519L38.2909 14.4595L37.282 15.2153L38.5935 16.4244L37.7864 17.029L39.6528 19.2458L48.1271 16.7771L54.1298 11.5878L38.5431 0L36.4749 6.14656Z" fill="#DDDDDD"/>
    <path opacity="0.45" d="M74.6597 19.1955L66.1854 16.7268L68.7579 20.6062L64.9243 28.0627L69.9685 28.0123H77.4845L74.6597 19.1955Z" fill="#FCFCFC"/>
    <path opacity="0.45" d="M48.127 16.7268L39.6527 19.1955L36.8279 28.0123H44.3439L49.3881 28.0627L45.5545 20.6062L48.127 16.7268Z" fill="#FCFCFC"/>
    <path opacity="0.45" d="M59.6279 21.0091L60.1828 11.5877L62.6545 4.88696H51.7085L54.1297 11.5877L54.6846 20.9587L54.8863 23.8809V31.1862H59.3757V23.8809L59.6279 21.0091Z" fill="#FCFCFC"/>
    <path opacity="0.45" d="M95.5934 58.7953C94.7863 58.2411 93.8784 57.8885 93.0209 57.3846C92.466 57.0824 91.8607 56.7801 91.4067 56.4274C90.5996 55.7724 90.7509 54.4625 91.6085 53.8579C92.8191 53.0518 94.8368 53.5053 95.089 55.1679C95.089 55.2182 95.1394 55.2182 95.1394 55.2182H97.0058C97.0563 55.2182 97.1067 55.1679 97.0563 55.1175C96.9554 53.9587 96.5014 53.0014 95.6943 52.3969C94.9377 51.7923 94.0297 51.49 93.0713 51.49C88.1784 51.49 87.7748 56.6289 90.3978 58.2915C90.7005 58.493 93.2731 59.7526 94.181 60.3572C95.089 60.9114 95.3916 61.9694 94.9881 62.7755C94.635 63.5312 93.6766 64.035 92.7686 63.9846C91.7598 63.9343 90.9527 63.3801 90.7005 62.5236C90.6501 62.3724 90.6501 62.0701 90.6501 61.919C90.6501 61.8686 90.5996 61.8686 90.5996 61.8686H88.5819C88.5315 61.8686 88.5315 61.919 88.5315 61.919C88.5315 63.3801 88.8846 64.1862 89.8934 64.8915C90.8014 65.5969 91.8102 65.8488 92.8695 65.8488C95.5934 65.8488 97.0058 64.2869 97.3085 62.7251C97.4598 61.1129 97.0058 59.7022 95.5934 58.7953Z" fill="white"/>
    <path opacity="0.45" d="M9.89165 51.7419H6.8651C6.81466 51.7419 6.81466 51.7419 6.81466 51.7923L5.15005 57.1832C5.15005 57.2335 5.04917 57.2335 4.99873 57.1832L3.33413 51.7923C3.33413 51.7419 3.28368 51.7419 3.28368 51.7419H0.206692C0.15625 51.7419 0.15625 51.7923 0.15625 51.7923V65.5969C0.15625 65.6473 0.206692 65.6473 0.206692 65.6473H2.22439C2.27483 65.6473 2.27483 65.5969 2.27483 65.5969V55.1175C2.27483 55.0168 2.37572 55.0168 2.42616 55.1175L4.09076 60.5587L4.19165 60.9618C4.19165 61.0122 4.24209 61.0122 4.24209 61.0122H5.75536C5.80581 61.0122 5.80581 61.0122 5.80581 60.9618L5.90669 60.5587L7.57129 55.1175C7.57129 55.0168 7.72262 55.0671 7.72262 55.1175V65.5969C7.72262 65.6473 7.77306 65.6473 7.77306 65.6473H9.79076C9.84121 65.6473 9.84121 65.5969 9.84121 65.5969V51.7923C9.94209 51.7923 9.94209 51.7419 9.89165 51.7419Z" fill="white"/>
    <path opacity="0.45" d="M64.9748 51.7419C64.9244 51.7419 64.9244 51.7419 64.9244 51.7923L63.2598 57.1832C63.2598 57.2335 63.1589 57.2335 63.1085 57.1832L61.4439 51.7923C61.4439 51.7419 61.3934 51.7419 61.3934 51.7419H58.3669C58.3164 51.7419 58.3164 51.7923 58.3164 51.7923V65.5969C58.3164 65.6473 58.3669 65.6473 58.3669 65.6473H60.3846C60.435 65.6473 60.435 65.5969 60.435 65.5969V55.1175C60.435 55.0168 60.5359 55.0168 60.5863 55.1175L62.2509 60.5587L62.3518 60.9618C62.3518 61.0122 62.4023 61.0122 62.4023 61.0122H63.9155C63.966 61.0122 63.966 61.0122 63.966 60.9618L64.0669 60.5587L65.7315 55.1175C65.7315 55.0168 65.8828 55.0671 65.8828 55.1175V65.5969C65.8828 65.6473 65.9332 65.6473 65.9332 65.6473H67.9509C68.0014 65.6473 68.0014 65.5969 68.0014 65.5969V51.7923C68.0014 51.7419 67.9509 51.7419 67.9509 51.7419H64.9748Z" fill="white"/>
    <path opacity="0.45" d="M39.1482 51.7419H29.7154C29.665 51.7419 29.665 51.7923 29.665 51.7923V53.5053C29.665 53.5557 29.7154 53.5557 29.7154 53.5557H33.3473V65.5969C33.3473 65.6473 33.3977 65.6473 33.3977 65.6473H35.4154C35.4659 65.6473 35.4659 65.5969 35.4659 65.5969V53.5557H39.0977C39.1482 53.5557 39.1482 53.5053 39.1482 53.5053V51.7923C39.2491 51.7923 39.1986 51.7419 39.1482 51.7419Z" fill="white"/>
    <path opacity="0.45" d="M50.9518 65.6978H52.7678C52.8182 65.6978 52.8686 65.6474 52.8182 65.597L49.0855 51.742C49.0855 51.6916 49.035 51.6917 49.035 51.6917H46.412C46.3616 51.6917 46.3616 51.6916 46.3616 51.742L42.5784 65.597C42.5784 65.6474 42.5784 65.6978 42.6288 65.6978H44.4447C44.4952 65.6978 44.4952 65.6978 44.4952 65.6474L45.6049 61.6168C45.6049 61.5665 45.6554 61.5665 45.6554 61.5665H49.6908C49.7412 61.5665 49.7412 61.5665 49.7412 61.6168L50.8509 65.6474C50.9014 65.6978 50.9518 65.6978 50.9518 65.6978ZM46.1598 59.6016L47.6226 54.2107C47.6226 54.1604 47.7235 54.1604 47.7739 54.2107L49.2368 59.6016C49.2368 59.652 49.2368 59.7023 49.1863 59.7023H46.2607C46.2102 59.7023 46.1598 59.652 46.1598 59.6016Z" fill="white"/>
    <path opacity="0.45" d="M82.0245 65.6978H83.8404C83.8909 65.6978 83.9413 65.6474 83.8909 65.597L80.1077 51.742C80.1077 51.6916 80.0572 51.6917 80.0572 51.6917H77.4342C77.3838 51.6917 77.3838 51.6916 77.3838 51.742L73.6006 65.597C73.6006 65.6474 73.6006 65.6978 73.651 65.6978H75.467C75.5174 65.6978 75.5174 65.6978 75.5174 65.6474L76.6271 61.6168C76.6271 61.5665 76.6776 61.5665 76.6776 61.5665H80.713C80.7634 61.5665 80.7634 61.5665 80.7634 61.6168L81.8732 65.6474C81.974 65.6978 81.974 65.6978 82.0245 65.6978ZM77.2325 59.6016L78.6953 54.2107C78.6953 54.1604 78.7962 54.1604 78.8466 54.2107L80.3094 59.6016C80.3094 59.652 80.3094 59.7023 80.259 59.7023H77.3333C77.2829 59.7023 77.2325 59.652 77.2325 59.6016Z" fill="white"/>
    <path opacity="0.45" d="M18.0632 63.6825V59.4001C18.0632 59.3497 18.1137 59.3497 18.1137 59.3497H23.4606C23.511 59.3497 23.511 59.2993 23.511 59.2993V57.5864C23.511 57.536 23.4606 57.536 23.4606 57.536H18.1641C18.1137 57.536 18.1137 57.4856 18.1137 57.4856V53.8077C18.1137 53.7573 18.1641 53.7573 18.1641 53.7573H24.2172C24.2677 53.7573 24.2677 53.707 24.2677 53.707V51.994C24.2677 51.9436 24.2172 51.9436 24.2172 51.9436H15.9951C15.9446 51.9436 15.9446 51.994 15.9446 51.994V65.7986C15.9446 65.849 15.9951 65.8489 15.9951 65.8489H24.4694C24.5199 65.8489 24.5199 65.7986 24.5199 65.7986V63.9848C24.5199 63.9344 24.4694 63.9344 24.4694 63.9344H18.1641C18.1137 63.7329 18.0632 63.7329 18.0632 63.6825Z" fill="white"/>
    <path opacity="0.45" d="M113.904 65.5971L106.993 58.4429C106.993 58.4429 106.993 58.3925 106.993 58.3421L113.248 51.8932C113.299 51.8429 113.248 51.7925 113.198 51.7925H110.625H110.575L105.278 57.2841C105.228 57.3345 105.177 57.2841 105.177 57.2337V51.8429C105.177 51.7925 105.127 51.7925 105.127 51.7925H103.109C103.059 51.7925 103.059 51.8429 103.059 51.8429V65.6474C103.059 65.6978 103.109 65.6978 103.109 65.6978H105.127C105.177 65.6978 105.177 65.6474 105.177 65.6474V59.5513C105.177 59.5009 105.278 59.4505 105.278 59.5009L111.281 65.6978H111.331H113.904C113.904 65.7482 113.954 65.6474 113.904 65.5971Z" fill="white"/>
  </g>
</svg>