<svg xmlns="http://www.w3.org/2000/svg" width="28" height="28" viewBox="0 0 28 28" fill="none">
  <path d="M20.4425 21.5C20.4425 18.5975 17.555 16.25 14 16.25C10.445 16.25 7.5575 18.5975 7.5575 21.5M14 14C14.9946 14 15.9484 13.6049 16.6516 12.9016C17.3549 12.1984 17.75 11.2446 17.75 10.25C17.75 9.25544 17.3549 8.30161 16.6516 7.59835C15.9484 6.89509 14.9946 6.5 14 6.5C13.0054 6.5 12.0516 6.89509 11.3483 7.59835C10.6451 8.30161 10.25 9.25544 10.25 10.25C10.25 11.2446 10.6451 12.1984 11.3483 12.9016C12.0516 13.6049 13.0054 14 14 14V14Z" stroke="white" stroke-width="1.5" stroke-linecap="round" stroke-linejoin="round"/>
</svg>