<svg xmlns="http://www.w3.org/2000/svg" width="40" height="208" viewBox="0 0 40 208" fill="none">
  <path d="M20 208L17.3872 195.179L7.14425 203.321L13.3842 191.82L0.303846 191.473L12.4767 186.673L2.67949 178L15.0895 182.148L13.1596 169.206L20 180.361L26.8404 169.206L24.9105 182.148L37.3205 178L27.5233 186.673L39.6962 191.473L26.6158 191.82L32.8558 203.321L22.6128 195.179L20 208Z" fill="#E9FD00"/>
  <path d="M20 166L17.3872 153.179L7.14425 161.321L13.3842 149.82L0.303846 149.473L12.4767 144.673L2.67949 136L15.0895 140.148L13.1596 127.206L20 138.361L26.8404 127.206L24.9105 140.148L37.3205 136L27.5233 144.673L39.6962 149.473L26.6158 149.82L32.8558 161.321L22.6128 153.179L20 166Z" fill="#E9FD00"/>
  <path d="M20 124L17.3872 111.179L7.14425 119.321L13.3842 107.82L0.303846 107.473L12.4767 102.673L2.67949 94L15.0895 98.1479L13.1596 85.2061L20 96.3607L26.8404 85.2061L24.9105 98.1479L37.3205 94L27.5233 102.673L39.6962 107.473L26.6158 107.82L32.8558 119.321L22.6128 111.179L20 124Z" fill="#E9FD00"/>
  <path d="M20 82L17.3872 69.1786L7.14425 77.3209L13.3842 65.8197L0.303846 65.473L12.4767 60.6734L2.67949 52L15.0895 56.1479L13.1596 43.2061L20 54.3607L26.8404 43.2061L24.9105 56.1479L37.3205 52L27.5233 60.6734L39.6962 65.473L26.6158 65.8197L32.8558 77.3209L22.6128 69.1786L20 82Z" fill="#E9FD00"/>
  <path d="M20 40L17.3872 27.1786L7.14425 35.3209L13.3842 23.8197L0.303846 23.473L12.4767 18.6734L2.67949 10L15.0895 14.1479L13.1596 1.20614L20 12.3607L26.8404 1.20615L24.9105 14.1479L37.3205 10L27.5233 18.6734L39.6962 23.473L26.6158 23.8197L32.8558 35.3209L22.6128 27.1786L20 40Z" fill="#3C4D5D"/>
</svg>