<svg xmlns="http://www.w3.org/2000/svg" width="139" height="169" viewBox="0 0 139 169" fill="none">
  <g clip-path="url(#clip0_1_249)">
    <path d="M106.075 20.5595C96.4702 12.2615 100.481 23.8703 83.037 21.3946C72.7015 19.9278 80.6801 11.9752 66.5648 17.013M106.075 20.5595C109.754 23.738 112.71 25.5255 114.883 28.7065M106.075 20.5595L94.6321 40.1302L101.619 66.4362M106.075 20.5595C101.793 24.3946 92.114 31.9157 87.6598 31.319M118.215 38.0365C120.492 51.5181 121.977 62.5597 121.977 62.5597M118.215 38.0365C117.481 33.6909 116.364 30.8749 114.883 28.7065M118.215 38.0365L114.883 28.7065M121.977 62.5597C121.977 62.5597 110.202 84.7161 107.925 102.531M121.977 62.5597C119.426 66.0568 114.069 70.9487 108.403 70.3061M107.925 102.531C105.647 120.347 101.899 135.542 101.899 135.542M107.925 102.531L101.453 112.689M101.899 135.542C101.899 135.542 83.9613 165.564 70.684 154.429M101.899 135.542L97.3302 136.478M70.684 154.429C65.0962 149.744 58.3681 144.904 54.9797 137.846M70.684 154.429C71.6957 149.873 72.6318 141.966 70.7507 137.734M53.4188 122.469C56.8726 105.843 35.7809 108.218 39.4774 90.9014M53.4188 122.469C54.1101 116.053 54.3376 102.284 49.7179 98.54M53.4188 122.469C52.1311 128.669 52.9652 133.649 54.9797 137.846M39.4774 90.9014C41.5108 81.3758 37.6982 65.1178 38.5825 50.313M39.4774 90.9014L49.6846 71.4984M114.883 28.7065L109.202 34.8681C103.459 41.7872 93.9026 57.7876 101.619 66.4362M101.619 66.4362C103.823 68.9069 106.138 70.0492 108.403 70.3061M108.403 70.3061L101.453 112.689M101.453 112.689L97.3302 136.478M97.3302 136.478C96.0723 136.036 92.3273 136.839 87.4098 143.591C81.2631 152.03 71.1883 138.948 70.7507 137.734M87.6598 31.319C82.092 30.5732 72.4325 26.2165 70.5226 21.2701M87.6598 31.319C85.7921 34.5491 79.7678 40.6285 70.6123 39.1058M70.5226 21.2701C68.9946 17.3129 67.2474 16.7832 66.5648 17.013M70.5226 21.2701L57.1504 30.6632M66.5648 17.013C63.9021 17.9633 60.4531 19.3759 55.9465 21.3816C54.7058 21.9338 53.5492 22.5374 52.4712 23.1883M52.4712 23.1883L57.1504 30.6632M52.4712 23.1883C42.4498 29.2397 39.2355 39.3801 38.5825 50.313M57.1504 30.6632C58.5655 31.1607 59.168 37.2025 70.6123 39.1058M57.1504 30.6632L38.5825 50.313M70.6123 39.1058C69.6273 38.8925 65.5483 39.5527 57.1126 43.8999C48.6768 48.247 48.6457 64.1102 49.6846 71.4984M38.5825 50.313C40.0919 50.8436 46.6128 64.6577 49.6846 71.4984M49.6846 71.4984C47.7708 78.9522 45.0982 94.7959 49.7179 98.54M49.7179 98.54C53.5563 96.6671 62.2017 94.3875 66.0759 100.252C68.5685 104.026 65.4596 114.33 61.5103 123.886M54.9797 137.846C56.8743 134.248 59.3214 129.182 61.5103 123.886M61.5103 123.886C60.8114 127.35 60.9615 134.399 67.1525 134.879C68.8774 135.013 70.0241 136.1 70.7507 137.734" stroke="url(#paint0_linear_1_249)"/>
    <path d="M78.9807 31.5389C70.8039 25.2742 74.6083 34.5072 60.3612 33.3631C51.9199 32.6853 58.0012 25.8268 46.81 30.6221M78.9807 31.5389C82.1128 33.9385 84.5924 35.2439 86.5044 37.7205M78.9807 31.5389L70.6499 48.0096L77.5684 69.0365M78.9807 31.5389C75.6958 34.868 68.2169 41.4604 64.5807 41.1971M89.65 45.1357C92.1402 55.9767 93.8718 64.8744 93.8718 64.8744M89.65 45.1357C88.8473 41.6413 87.8077 39.4088 86.5044 37.7205M89.65 45.1357L86.5044 37.7205M93.8718 64.8744C93.8718 64.8744 85.3962 83.4626 84.4048 98.0514M93.8718 64.8744C91.9732 67.8427 87.8683 72.084 83.2491 71.8436M84.4048 98.0514C83.4134 112.64 81.1056 125.173 81.1056 125.173M84.4048 98.0514L79.6499 106.627M81.1056 125.173C81.1056 125.173 68.0149 150.458 56.7279 142.072M81.1056 125.173L77.4498 126.161M56.7279 142.072C51.9777 138.542 46.2966 134.945 43.2141 129.378M56.7279 142.072C57.329 138.319 57.7085 131.848 55.9822 128.503M41.2135 116.962C43.2145 103.281 26.2453 106.259 28.4098 92.0055M41.2135 116.962C41.466 111.714 40.9908 100.515 37.0698 97.7028M41.2135 116.962C40.4674 122.063 41.3815 126.069 43.2141 129.378M28.4098 92.0055C29.6005 84.1646 25.7339 71.1441 25.741 59.0708M28.4098 92.0055L35.7477 75.7324M86.5044 37.7205L82.1985 43.0095C77.8786 48.9171 70.9047 62.3931 77.5684 69.0365M77.5684 69.0365C79.4721 70.9345 81.4017 71.7474 83.2491 71.8436M83.2491 71.8436L79.6499 106.627M79.6499 106.627L77.4498 126.161M77.4498 126.161C76.4099 125.864 73.4151 126.703 69.7556 132.433C65.1813 139.596 56.3949 129.468 55.9822 128.503M64.5807 41.1971C60.0355 40.8679 52.0033 37.8084 50.2194 33.8843M64.5807 41.1971C63.2227 43.9145 58.6346 49.1537 51.1463 48.3718M50.2194 33.8843C48.7923 30.745 47.3519 30.4014 46.81 30.6221M50.2194 33.8843L39.8387 42.1815M46.81 30.6221C44.6988 31.5267 41.973 32.846 38.4191 34.6997C37.4406 35.2101 36.5327 35.7581 35.6909 36.3405M35.6909 36.3405L39.8387 42.1815M35.6909 36.3405C27.864 41.7558 25.7463 50.155 25.741 59.0708M39.8387 42.1815C41.0087 42.5153 41.786 47.3944 51.1463 48.3718M39.8387 42.1815L25.741 59.0708M51.1463 48.3718C50.3383 48.2475 47.0663 48.9868 40.442 52.9385C33.8178 56.8902 34.5524 69.781 35.7477 75.7324M25.741 59.0708C26.989 59.4269 32.9321 70.3269 35.7477 75.7324M35.7477 75.7324C34.5546 81.884 33.1488 94.8903 37.0698 97.7028M37.0698 97.7028C40.089 95.9901 46.982 93.7079 50.4007 98.2806C52.6003 101.223 50.5759 109.75 47.8349 117.71M43.2141 129.378C44.5763 126.361 46.3157 122.123 47.8349 117.71M47.8349 117.71C47.4348 120.56 47.8939 126.28 52.9313 126.362C54.3347 126.385 55.3155 127.211 55.9822 128.503" stroke="url(#paint1_linear_1_249)"/>
    <path d="M110.844 43.9255C109.033 33.2052 104.892 31.7937 98.7049 26.4485C89.0999 18.1505 93.1106 29.7593 75.6667 27.2836C63.3815 25.5401 76.9718 14.633 48.5762 27.2706C20.1807 39.9081 35.8036 79.4738 32.1071 96.7904C28.4107 114.107 49.5023 111.732 46.0486 128.358C42.5948 144.985 54.404 152.847 63.3137 160.318C76.591 171.452 94.5289 141.431 94.5289 141.431C94.5289 141.431 98.2768 126.236 100.554 108.42C102.832 90.6051 114.607 68.4487 114.607 68.4487C114.607 68.4487 113.122 57.4071 110.844 43.9255Z" fill="url(#paint2_linear_1_249)"/>
    <path d="M52.4961 34.8569L53.2368 28.2274L64.5207 24.7743L65.8842 28.4337L52.4961 34.8569Z" fill="url(#paint3_linear_1_249)"/>
    <path d="M40.5064 80.8812C41.3835 79.9699 36.6587 78.4947 34.1866 77.8711C34.1863 81.7477 34.4521 89.4062 35.5183 89.028C36.8512 88.5552 39.4099 82.0205 40.5064 80.8812Z" fill="url(#paint4_linear_1_249)"/>
    <path d="M50.8894 36.4121C45.5595 40.015 34.7389 47.3763 34.0962 47.9983C34.1134 46.9444 34.834 43.4877 37.5786 38.0926C40.3233 32.6975 48.5321 29.0467 52.2934 27.8957L50.8894 36.4121Z" fill="url(#paint5_linear_1_249)"/>
    <path d="M98.1443 76.8747C97.6666 67.3789 102.539 49.7999 105.647 43.4725L110.921 69.1764C107.231 75.6525 98.6219 86.3706 98.1443 76.8747Z" fill="url(#paint6_linear_1_249)"/>
    <path d="M44.5902 41.3398L66.6971 28.2665C62.7832 33.6023 48.2763 42.1919 47.5496 46.368C46.6413 51.588 46.2782 58.1416 44.2272 60.8903C42.1762 63.6389 46.2449 69.5161 45.3222 71.2954C44.3995 73.0747 40.0249 71.4068 38.691 71.5662C37.3572 71.7256 33.4365 52.8955 33.8715 50.5486C34.2195 48.6711 41.1623 43.6271 44.5902 41.3398Z" fill="url(#paint7_linear_1_249)"/>
    <path d="M58.4032 53.398C65.0876 54.5255 75.5982 55.5063 76.4373 55.5706L67.1076 28.7442L48.6485 45.8013C48.6485 45.8013 51.7188 52.2706 58.4032 53.398Z" fill="url(#paint8_linear_1_249)"/>
    <path d="M77.2517 60.4586C76.0209 62.6372 72.4134 71.5765 72.4717 72.0718C72.53 72.567 70.2933 78.2683 75.3517 73.7964C80.41 69.3244 88.2411 66.2211 88.2411 66.2211C88.2411 66.2211 93.0529 53.1948 93.2015 52.7722C93.35 52.3497 93.7957 51.0821 93.1168 50.3686C92.438 49.6552 80.6891 55.9698 80.1268 56.2469C79.5646 56.524 78.4824 58.28 77.2517 60.4586Z" fill="url(#paint9_linear_1_249)"/>
    <path d="M94.4677 49.96C93.4107 49.2738 96.904 35.56 98.7521 29.9186L105.507 42.3633C98.7854 56.9602 97.3295 72.5919 96.4496 77.7873L90.2167 66.6678C91.1626 63.5926 91.8093 61.2145 93.0823 58.5165C94.6736 55.144 95.7889 50.8177 94.4677 49.96Z" fill="url(#paint10_linear_1_249)"/>
    <path d="M80.9649 54.6261C78.5941 55.3532 72.6347 42.2484 73.1624 37.8823L97.8818 30.1426C96.2649 35.8164 93.025 47.3959 93.001 48.3238C92.9709 49.4836 83.9283 53.7172 80.9649 54.6261Z" fill="url(#paint11_linear_1_249)"/>
    <path d="M74.3827 127.881C78.2576 125.116 80.8369 126.681 87.2991 121.292C85.6615 129.026 82.3853 145.921 74.5748 149.948C66.7642 153.976 57.9695 147.438 56.0818 143.447C56.1419 139.512 59.3792 130.503 64.2282 132.357C69.0772 134.211 72.7478 129.468 74.3827 127.881Z" fill="url(#paint12_linear_1_249)"/>
    <path d="M71.3609 128.939C69.5898 130.795 65.7315 133.899 65.8148 129.639C65.898 125.379 68.6174 119.997 72.344 117.074C76.0705 114.15 79.9549 115.162 81.3587 117.083C81.7255 119.173 81.4601 125.121 78.7054 124.631C75.9507 124.141 72.0655 127.933 71.3609 128.939Z" fill="url(#paint13_linear_1_249)"/>
    <path d="M74.3387 159.665C80.2008 157.781 90.6978 145.209 91.4008 141.284C86.0606 142.976 79.261 148.797 77.987 149.288C78.0025 149.947 68.9781 153.797 69.371 155.452C69.7639 157.108 67.3082 160.164 66.0312 161.486C67.1554 161.755 68.4766 161.55 74.3387 159.665Z" fill="url(#paint14_linear_1_249)"/>
    <path d="M46.9206 56.7467C46.6759 56.2367 47.5507 50.4316 48.0187 47.5928C49.6206 49.5693 53.5789 53.7875 56.5978 54.8488C59.6167 55.9101 74.0728 56.399 76.1807 56.4333C78.2886 56.4676 63.058 75.6699 63.058 75.6699L46.2168 70.8093L44.6248 61.7696C45.492 60.3078 47.1653 57.2568 46.9206 56.7467Z" fill="url(#paint15_linear_1_249)"/>
    <path d="M64.3073 76.6391L77.7616 56.4591L70.4909 75.633L64.3073 76.6391Z" fill="url(#paint16_linear_1_249)"/>
    <path d="M81.532 145.234C83.3481 142.481 86.9663 128.772 88.5484 122.261C90.0618 119.966 93.698 114.849 96.1361 112.739C99.1837 110.1 93.1734 139.257 90.9549 139.537C88.7365 139.817 79.262 148.676 81.532 145.234Z" fill="url(#paint17_linear_1_249)"/>
    <path d="M65.9623 159.371C65.0543 160.748 64.2156 159.817 63.1321 158.376C63.1321 158.376 58.9418 155.913 56.4141 153.364C53.8902 150.819 50.2193 145.356 50.2193 145.356C51.1418 143.737 55.0034 142.904 56.8489 146.097C59.1558 150.088 67.0347 151.798 68.1181 153.239C69.2015 154.68 67.0973 157.65 65.9623 159.371Z" fill="url(#paint18_linear_1_249)"/>
    <path d="M54.2192 83.6814C57.8456 84.0357 62.8094 82.7074 63.5409 83.621C64.2723 84.5347 63.8723 85.1495 63.8723 85.1495C63.8723 85.1495 53.9533 90.656 53.4338 92.36C52.9142 94.0641 50.5435 97.4807 49.2327 98.8158C47.9219 100.151 40.8316 103.122 36.8415 105.631L37.391 88.4843C37.391 88.4843 40.4397 80.4032 41.7713 80.3947C43.1029 80.3861 48.9027 83.1619 54.2192 83.6814Z" fill="url(#paint19_linear_1_249)"/>
    <path d="M97.7286 102.754L106.867 76.7611C105.723 77.9816 103.148 80.754 101.996 82.0797C100.555 83.7368 88.9653 119.144 88.6269 120.107C88.3561 120.877 93.2856 114.173 95.7842 110.724L97.7286 102.754Z" fill="url(#paint20_linear_1_249)"/>
    <path d="M100.094 83.3901L95.7342 79.2074C92.3893 80.6815 87.1165 81.7461 84.8704 85.9882C80.1387 94.9247 82.5748 113.624 83.0023 122.961L87.1591 120.183L100.094 83.3901Z" fill="url(#paint21_linear_1_249)"/>
    <path d="M73.3211 76.628L88.3417 67.0686L94.7908 78.8758C93.8941 78.9139 91.3356 79.3571 88.2755 80.8253C88.2521 80.8365 88.2288 80.8479 88.2054 80.8596C85.1767 82.3758 82.6747 87.7112 81.797 90.2077L65.4276 85.5129L73.3211 76.628Z" fill="url(#paint22_linear_1_249)"/>
    <path d="M72.5365 115.042C70.8364 115.858 65.236 87.5654 65.236 87.5654L65.2618 85.9845C65.2618 85.9845 81.3325 89.6071 81.2996 91.6227C81.2222 96.3655 82.6846 117.232 80.4411 115.171C78.1976 113.11 74.2365 114.226 72.5365 115.042Z" fill="url(#paint23_linear_1_249)"/>
    <path d="M55.3561 82.5022C50.9398 81.7976 47.5165 75.1529 46.3569 71.9185L63.198 76.7791C62.4242 78.9804 59.7723 83.2068 55.3561 82.5022Z" fill="url(#paint24_linear_1_249)"/>
    <path d="M61.3739 81.9678L63.9756 77.5825L72.2119 76.768L65.785 82.9886L61.3739 81.9678Z" fill="url(#paint25_linear_1_249)"/>
    <path d="M45.5535 72.6961C43.1311 72.5512 38.1257 72.4168 37.483 73.0389C37.0027 73.4 35.8763 74.594 35.213 76.4808C34.3839 78.8393 54.081 83.114 51.7225 82.2848C49.8357 81.6215 46.8237 75.616 45.5535 72.6961Z" fill="url(#paint26_linear_1_249)"/>
    <path d="M37.343 71.9296L33.2155 53.5186C33.2057 60.5818 33.1478 75.1188 32.9945 76.7609C32.8413 78.403 35.8296 74.2242 37.343 71.9296Z" fill="url(#paint27_linear_1_249)"/>
    <path d="M70.7896 115.488L63.8209 87.0681C63.8209 87.0681 49.337 89.5728 53.2741 103.5C57.2111 117.428 65.9032 133.91 64.6798 131.36C63.4563 128.81 67.8354 118.866 70.7896 115.488Z" fill="url(#paint28_linear_1_249)"/>
    <path d="M54.8479 142.743L49.6076 144.081C48.9025 142.067 47.5844 136.268 47.9529 129.189C48.3213 122.111 55.4595 121.405 58.2049 121.134L63.2647 130.862C58.5831 130.913 55.1291 138.426 54.8479 142.743Z" fill="url(#paint29_linear_1_249)"/>
    <path d="M57.759 119.387L50.6355 100.453L52.3529 121.196L57.759 119.387Z" fill="url(#paint30_linear_1_249)"/>
    <path d="M51.5753 120.393L48.8887 100.899C43.3635 103.549 33.4885 108.522 38.1908 107.208C42.893 105.893 46.7269 117.098 48.056 122.866L51.5753 120.393Z" fill="url(#paint31_linear_1_249)"/>
    <path d="M72.2448 35.9698C70.1133 34.7964 67.5585 29.1989 66.7134 26.0752C67.389 26.666 68.9444 26.9655 74.0947 29.2001C79.2451 31.4348 92.2072 30.4444 97.5028 28.9494C89.861 32.0929 74.3763 37.1431 72.2448 35.9698Z" fill="url(#paint32_linear_1_249)"/>
    <path d="M80.3289 5.28269L84.0653 3.5246M83.0761 6.27185L81.318 2.53545" stroke="white"/>
    <path d="M22.2737 113.133L26.0101 111.374M25.0209 114.122L23.2628 110.385" stroke="white"/>
    <path d="M82.2529 81.2188L85.9893 79.4607M85.0002 82.208L83.2421 78.4716" stroke="white"/>
    <path d="M118.972 79.2876L122.708 77.5295M121.719 80.2768L119.961 76.5404" stroke="white"/>
  </g>
  <defs>
    <linearGradient id="paint0_linear_1_249" x1="65.0824" y1="13.4416" x2="39.4412" y2="165.634" gradientUnits="userSpaceOnUse">
      <stop stop-color="white"/>
      <stop offset="1" stop-color="white" stop-opacity="0"/>
    </linearGradient>
    <linearGradient id="paint1_linear_1_249" x1="45.4383" y1="27.794" x2="32.1237" y2="152.747" gradientUnits="userSpaceOnUse">
      <stop stop-color="white"/>
      <stop offset="1" stop-color="white" stop-opacity="0"/>
    </linearGradient>
    <linearGradient id="paint2_linear_1_249" x1="95.3952" y1="14.9512" x2="34.4833" y2="173.028" gradientUnits="userSpaceOnUse">
      <stop stop-color="#698091"/>
      <stop offset="1" stop-color="#08101C"/>
    </linearGradient>
    <linearGradient id="paint3_linear_1_249" x1="63.8541" y1="22.6038" x2="47.2921" y2="32.5384" gradientUnits="userSpaceOnUse">
      <stop stop-color="#EDFD33"/>
      <stop offset="1" stop-color="#06101A"/>
    </linearGradient>
    <linearGradient id="paint4_linear_1_249" x1="39.3736" y1="78.0751" x2="27.0171" y2="81.9702" gradientUnits="userSpaceOnUse">
      <stop stop-color="#EDFD33"/>
      <stop offset="1" stop-color="#06101A"/>
    </linearGradient>
    <linearGradient id="paint5_linear_1_249" x1="51.0658" y1="23.8787" x2="25.9141" y2="30.4539" gradientUnits="userSpaceOnUse">
      <stop stop-color="#EDFD33"/>
      <stop offset="1" stop-color="#06101A"/>
    </linearGradient>
    <linearGradient id="paint6_linear_1_249" x1="95.7858" y1="76.0456" x2="114.888" y2="72.912" gradientUnits="userSpaceOnUse">
      <stop stop-color="#EDFD33"/>
      <stop offset="1" stop-color="#06101A"/>
    </linearGradient>
    <linearGradient id="paint7_linear_1_249" x1="58.1873" y1="43.4704" x2="42.6075" y2="33.485" gradientUnits="userSpaceOnUse">
      <stop stop-color="#EDFD33"/>
      <stop offset="1" stop-color="#06101A"/>
    </linearGradient>
    <linearGradient id="paint8_linear_1_249" x1="50.9432" y1="54.4091" x2="75.819" y2="45.2435" gradientUnits="userSpaceOnUse">
      <stop stop-color="#EDFD33"/>
      <stop offset="1" stop-color="#06101A"/>
    </linearGradient>
    <linearGradient id="paint9_linear_1_249" x1="83.3991" y1="33.1139" x2="100.065" y2="79.3669" gradientUnits="userSpaceOnUse">
      <stop stop-color="#EDFD33"/>
      <stop offset="1" stop-color="#06101A"/>
    </linearGradient>
    <linearGradient id="paint10_linear_1_249" x1="85.7729" y1="68.9223" x2="108.073" y2="66.1962" gradientUnits="userSpaceOnUse">
      <stop stop-color="#EDFD33"/>
      <stop offset="1" stop-color="#06101A"/>
    </linearGradient>
    <linearGradient id="paint11_linear_1_249" x1="97.7597" y1="30.4899" x2="59.7963" y2="21.2999" gradientUnits="userSpaceOnUse">
      <stop offset="0.130978" stop-color="#EDFD33"/>
      <stop offset="1" stop-color="#06101A"/>
    </linearGradient>
    <linearGradient id="paint12_linear_1_249" x1="70.9161" y1="152.58" x2="157.554" y2="133.905" gradientUnits="userSpaceOnUse">
      <stop stop-color="#EDFD33"/>
      <stop offset="1" stop-color="#06101A"/>
    </linearGradient>
    <linearGradient id="paint13_linear_1_249" x1="73.5652" y1="115.294" x2="55.6374" y2="135.572" gradientUnits="userSpaceOnUse">
      <stop stop-color="#EDFD33"/>
      <stop offset="1" stop-color="#06101A"/>
    </linearGradient>
    <linearGradient id="paint14_linear_1_249" x1="66.5591" y1="146.118" x2="74.4899" y2="158.707" gradientUnits="userSpaceOnUse">
      <stop stop-color="#EDFD33"/>
      <stop offset="1" stop-color="#06101A"/>
    </linearGradient>
    <linearGradient id="paint15_linear_1_249" x1="52.5" y1="77.4664" x2="92.3962" y2="51.7888" gradientUnits="userSpaceOnUse">
      <stop stop-color="#EDFD33"/>
      <stop offset="1" stop-color="#06101A"/>
    </linearGradient>
    <linearGradient id="paint16_linear_1_249" x1="68.2871" y1="65.3183" x2="74.5307" y2="67.6592" gradientUnits="userSpaceOnUse">
      <stop stop-color="#EDFD33"/>
      <stop offset="1" stop-color="#06101A"/>
    </linearGradient>
    <linearGradient id="paint17_linear_1_249" x1="84.6348" y1="119.825" x2="96.105" y2="122.625" gradientUnits="userSpaceOnUse">
      <stop stop-color="#EDFD33"/>
      <stop offset="1" stop-color="#06101A"/>
    </linearGradient>
    <linearGradient id="paint18_linear_1_249" x1="70" y1="153.466" x2="63.6362" y2="160.656" gradientUnits="userSpaceOnUse">
      <stop stop-color="#EDFD33"/>
      <stop offset="1" stop-color="#06101A"/>
    </linearGradient>
    <linearGradient id="paint19_linear_1_249" x1="65.4847" y1="70.4452" x2="25.1112" y2="92.7198" gradientUnits="userSpaceOnUse">
      <stop stop-color="#EDFD33"/>
      <stop offset="1" stop-color="#06101A"/>
    </linearGradient>
    <linearGradient id="paint20_linear_1_249" x1="86.3558" y1="120.96" x2="91.3479" y2="122.743" gradientUnits="userSpaceOnUse">
      <stop stop-color="#EDFD33"/>
      <stop offset="1" stop-color="#06101A"/>
    </linearGradient>
    <linearGradient id="paint21_linear_1_249" x1="78" y1="123.966" x2="95.5001" y2="125.128" gradientUnits="userSpaceOnUse">
      <stop stop-color="#EDFD33"/>
      <stop offset="1" stop-color="#06101A"/>
    </linearGradient>
    <linearGradient id="paint22_linear_1_249" x1="91.182" y1="64.4817" x2="60.2476" y2="85.9581" gradientUnits="userSpaceOnUse">
      <stop stop-color="#EDFD33"/>
      <stop offset="1" stop-color="#06101A"/>
    </linearGradient>
    <linearGradient id="paint23_linear_1_249" x1="84" y1="107.966" x2="65.0448" y2="112.35" gradientUnits="userSpaceOnUse">
      <stop stop-color="#EDFD33"/>
      <stop offset="1" stop-color="#06101A"/>
    </linearGradient>
    <linearGradient id="paint24_linear_1_249" x1="63" y1="82.4663" x2="38.1621" y2="0.0681829" gradientUnits="userSpaceOnUse">
      <stop stop-color="#EDFD33"/>
      <stop offset="1" stop-color="#06101A"/>
    </linearGradient>
    <linearGradient id="paint25_linear_1_249" x1="62.2102" y1="71.3715" x2="5.54763" y2="139.042" gradientUnits="userSpaceOnUse">
      <stop stop-color="#EDFD33"/>
      <stop offset="1" stop-color="#06101A"/>
    </linearGradient>
    <linearGradient id="paint26_linear_1_249" x1="62.2102" y1="71.3715" x2="5.54763" y2="139.042" gradientUnits="userSpaceOnUse">
      <stop stop-color="#EDFD33"/>
      <stop offset="1" stop-color="#06101A"/>
    </linearGradient>
    <linearGradient id="paint27_linear_1_249" x1="40.625" y1="52.9235" x2="19.5481" y2="57.3749" gradientUnits="userSpaceOnUse">
      <stop stop-color="#EDFD33"/>
      <stop offset="1" stop-color="#06101A"/>
    </linearGradient>
    <linearGradient id="paint28_linear_1_249" x1="73.7329" y1="84.5708" x2="29.1394" y2="98.8858" gradientUnits="userSpaceOnUse">
      <stop stop-color="#EDFD33"/>
      <stop offset="1" stop-color="#06101A"/>
    </linearGradient>
    <linearGradient id="paint29_linear_1_249" x1="62" y1="132.966" x2="47.2121" y2="132.746" gradientUnits="userSpaceOnUse">
      <stop stop-color="#EDFD33"/>
      <stop offset="1" stop-color="#06101A"/>
    </linearGradient>
    <linearGradient id="paint30_linear_1_249" x1="59.8188" y1="100.956" x2="37.7879" y2="110.532" gradientUnits="userSpaceOnUse">
      <stop stop-color="#EDFD33"/>
      <stop offset="1" stop-color="#06101A"/>
    </linearGradient>
    <linearGradient id="paint31_linear_1_249" x1="58.5" y1="93.4662" x2="36.6383" y2="104.943" gradientUnits="userSpaceOnUse">
      <stop stop-color="#EDFD33"/>
      <stop offset="1" stop-color="#06101A"/>
    </linearGradient>
    <linearGradient id="paint32_linear_1_249" x1="89.0993" y1="23.8421" x2="72.4064" y2="44.0061" gradientUnits="userSpaceOnUse">
      <stop stop-color="#EDFD33"/>
      <stop offset="1" stop-color="#06101A"/>
    </linearGradient>
    <clipPath id="clip0_1_249">
      <rect width="138.708" height="167.814" fill="white" transform="translate(0.0386353 0.879883)"/>
    </clipPath>
  </defs>
</svg>