<svg xmlns="http://www.w3.org/2000/svg" width="97" height="170" viewBox="0 0 97 170" fill="none">
  <path d="M78.7389 100.455C81.6654 95.5203 86.5456 82.6261 86.8174 80.8721C87.0348 79.4689 82.4737 71.6976 80.166 67.9874C79.0397 65.1786 76.7175 58.6164 76.4382 54.8372C76.2781 52.6701 76.2492 50.1454 76.2231 47.8674C76.1923 45.1796 76.1655 42.8353 75.9317 41.8269C75.4997 39.9639 76.8326 29.0346 77.6193 26.2827C77.8525 25.4669 77.4488 24.0985 76.7423 22.5547C76.5684 22.1747 76.3761 21.7841 76.1705 21.3884M78.7389 100.455C79.3467 96.8374 81.0226 88.3082 82.8639 83.1333C82.0033 81.0281 79.7021 77.9419 77.5136 75.0068M78.7389 100.455C77.5852 102.401 76.5827 104.816 75.7681 107.179M76.1705 21.3884C74.9573 19.0543 73.2788 16.5462 72.158 15.0193C60.6397 22.6942 36.7697 37.843 33.4352 37.039C30.1007 36.235 21.7897 76.5449 18.051 96.8003C22.5426 115.098 32.9924 152.926 38.8581 157.858C41.1235 159.763 42.5476 159.782 44.5968 158.029L44.5992 158.027M76.1705 21.3884C65.1457 28.3016 42.1423 41.7002 39.3599 42.986C39.3249 45.9572 41.3804 52.2198 43.3337 52.2229C44.439 50.6699 67.428 31.3173 67.428 31.3173C71.4123 26.5529 70.9149 26.3567 73.4683 23.7377C74.2463 22.6418 74.7862 22.2516 76.1705 21.3884ZM75.7681 107.179C74.5165 110.81 73.7087 114.317 73.4782 115.805C73.1739 117.769 67.9658 129.679 65.3998 135.388C62.5486 135.186 56.472 135.801 54.9753 139.88L54.9324 139.996C53.8304 143 50.5724 150.74 46.9093 155.513M75.7681 107.179C73.7794 107.111 68.9959 106.13 65.7712 102.757C64.2462 101.161 62.9531 100.138 62.3289 99.5631C64.2071 95.2922 71.3872 78.4094 74.1574 70.3272C74.9895 71.6104 76.1101 73.1238 77.2792 74.6923M46.9093 155.513C46.9156 154.437 46.9825 151.932 47.1999 150.529C47.3836 149.344 48.508 146.335 49.427 143.877C49.8678 142.697 50.2613 141.644 50.4811 140.979C51.159 138.929 52.8383 137.393 54.7607 136.613C56.34 135.973 56.0027 134.488 55.6665 133.008C55.5935 132.687 55.5205 132.365 55.4672 132.053C55.2784 130.946 55.1232 130.204 54.968 129.461C51.0348 127.313 41.987 126.824 40.707 127.234C41.9117 133.199 41.8908 152.963 43.6591 156.592C43.6931 156.635 43.9788 156.9 44.0115 156.941C44.2625 157.284 44.5135 157.627 44.5992 158.027M46.9093 155.513C46.1515 156.501 45.3763 157.361 44.5992 158.027M23.93 101.246L23.9284 101.24M23.93 101.246C23.9295 101.244 23.929 101.242 23.9284 101.24M23.93 101.246L23.9312 101.25M23.93 101.246C23.9304 101.248 23.9308 101.249 23.9312 101.25M77.5136 75.0068C77.4353 74.9018 77.3571 74.7969 77.2792 74.6923M77.5136 75.0068L77.2792 74.6923M23.9284 101.24C23.8168 100.814 23.7232 100.457 23.6524 100.183C26.6066 102.509 32.5668 111.071 34.3906 115.003C36.6704 119.918 37.9002 123.758 38.879 127.255C39.2349 128.526 42.3802 143.915 42.2547 154.54C41.6947 153.667 40.847 152.324 40.5945 151.302C39.4873 146.82 35.8369 140.148 32.7886 136.566C29.7404 132.984 28.2671 123.888 27.6749 118.408C27.2112 114.118 25.4223 106.981 24.3432 102.827C24.1897 102.236 24.0506 101.706 23.9317 101.252L23.9312 101.25M34.0434 97.6138C33.6544 99.3496 33.096 105.999 33.897 106.411C34.5304 106.736 42.5367 95.5125 48.4252 88.5894C53.5918 86.0445 56.1674 92.2219 56.9203 93.2509C57.5552 94.1186 60.0734 98.6054 61.102 100.894C58.4496 110.029 54.1883 125.225 54.4687 126.869C50.9481 126.649 43.185 126.158 40.297 125.954C36.3144 117.258 27.5507 98.8516 24.357 94.7915C24.4653 94.4416 24.5621 94.129 24.6307 93.8683C29.834 74.0778 33.9709 57.909 36.1521 49.2809C37.3978 48.0105 40.5815 51.4878 43.1624 52.4959C41.5101 58.3069 36.2901 84.5166 34.0434 97.6138ZM73.2086 68.7056C72.744 69.8481 71.326 76.9313 69.3396 81.7936C67.7959 85.5726 64.1402 93.7612 61.686 98.8908C59.2535 96.7248 56.4016 86.784 56.1297 84.613C55.9122 82.8762 56.5093 77.4742 56.8351 74.9904C59.7484 65.4469 65.7966 39.8841 67.0397 36.4272C68.867 31.8444 71.1288 30.2484 76.5051 25.7288C73.7299 34.5199 72.8796 63.8435 73.2086 68.7056Z" stroke="url(#paint0_linear_1_407)" stroke-width="1.5"/>
  <path d="M39.3259 78.8434C40.6587 75.5181 42.4358 67.0942 42.4358 65.9858C42.4358 65.099 38.8817 60.7393 37.1046 58.6702C36.142 57.0445 34.0835 53.2168 33.5504 50.9113C33.2447 49.5892 32.9857 48.0339 32.7521 46.6306C32.4764 44.9748 32.2359 43.5306 31.9955 42.9307C31.5512 41.8223 31.329 34.9501 31.5512 33.1766C31.617 32.6508 31.2375 31.8449 30.6544 30.9598C30.5109 30.7419 30.3551 30.5192 30.1905 30.2947M39.3259 78.8434C39.3551 76.5527 39.5736 71.1288 40.2145 67.7592C39.4828 66.5423 37.7694 64.8578 36.1399 63.2557M39.3259 78.8434C38.8005 80.1543 38.4132 81.7409 38.1367 83.2771M30.1905 30.2947C29.2197 28.9703 27.9453 27.583 27.1085 26.7478C20.7406 32.5855 7.47166 44.2165 5.33916 44.0391C3.20665 43.8618 1.93307 69.5327 1.56285 82.3903C6.07961 93.2528 16.135 115.598 20.2223 118.081C21.8008 119.04 22.6806 118.916 23.7764 117.638L23.7778 117.636M30.1905 30.2947C24.0541 35.6151 11.1523 46.0832 9.55974 47.1427C9.82197 48.9796 11.6873 52.6479 12.8918 52.4631C13.4249 51.399 25.7492 37.258 25.7492 37.258C27.7504 33.9368 27.425 33.8633 28.749 32.0029C29.124 31.2522 29.4196 30.9598 30.1905 30.2947ZM38.1367 83.2771C37.7119 85.6375 37.5488 87.8791 37.5488 88.8191C37.5488 90.0606 35.4756 97.9082 34.4389 101.677C32.6619 101.825 28.9744 102.785 28.4413 105.445L28.426 105.522C28.0336 107.481 26.7642 112.569 24.9619 115.865M38.1367 83.2771C36.9041 83.4249 33.8614 83.2771 31.5512 81.5036C30.4586 80.6649 29.5637 80.1567 29.124 79.8618C29.874 77.0466 32.6879 65.9413 33.6238 60.6886C34.2593 61.401 35.0947 62.2278 35.9653 63.084M24.9619 115.865C24.8629 115.199 24.665 113.648 24.665 112.761C24.665 112.012 25.0708 110.048 25.4025 108.442C25.5616 107.672 25.7036 106.985 25.7756 106.554C25.9978 105.224 26.8863 104.115 27.997 103.45C28.9095 102.904 28.5597 102.02 28.2111 101.139C28.1354 100.947 28.0597 100.756 27.997 100.568C27.7749 99.9033 27.6083 99.4599 27.4417 99.0166C24.8117 98.067 19.187 98.63 18.437 99.0054C19.7495 102.571 21.6244 114.771 23.0611 116.841C23.0862 116.864 23.2876 117 23.3118 117.023C23.4993 117.211 23.6868 117.398 23.7778 117.636M24.9619 115.865C24.589 116.546 24.1932 117.152 23.7778 117.636M5.61191 84.5718L5.61031 84.5682M5.61191 84.5718C5.61138 84.5706 5.61085 84.5694 5.61031 84.5682M5.61191 84.5718L5.61304 84.5744M5.61191 84.5718C5.61228 84.5727 5.61266 84.5736 5.61304 84.5744M36.1399 63.2557C36.0816 63.1984 36.0233 63.1411 35.9653 63.084M36.1399 63.2557L35.9653 63.084M5.61031 84.5682C5.50086 84.3162 5.40902 84.1048 5.33916 83.9421C7.38264 85.0954 11.8748 89.809 13.3748 92.0612C15.2497 94.8764 16.3746 97.1286 17.3121 99.1931C17.653 99.9438 21.0619 109.14 21.9993 115.709C21.5707 115.224 20.9199 114.476 20.6665 113.869C19.5558 111.209 16.6681 107.441 14.4467 105.522C12.2254 103.603 10.4483 98.1299 9.55974 94.8046C8.86417 92.2015 7.07961 87.9683 6.01758 85.5079C5.86657 85.1581 5.73012 84.844 5.61354 84.5756L5.61304 84.5744M11.4999 81.3633C11.4258 82.4717 11.7167 86.6287 12.2498 86.8061C12.6714 86.9463 16.5352 79.2545 19.5042 74.4191C22.4463 72.3546 24.6242 75.9205 25.1867 76.4836C25.661 76.9584 27.642 79.4865 28.4947 80.8002C27.732 86.6916 26.5564 96.4771 26.8863 97.4648C24.6949 97.6655 19.8619 98.1045 18.062 98.2547C14.7762 93.2691 7.6153 82.748 5.25864 80.5477C5.29199 80.3215 5.3218 80.1192 5.33916 79.9518C6.65674 67.2411 7.66277 56.8673 8.18336 51.3342C8.82999 50.431 11.1249 52.2726 12.8123 52.6479C12.3487 56.3921 11.634 73.0658 11.4999 81.3633ZM32.884 59.7786C32.7067 60.5281 32.509 65.0349 31.7489 68.2255C31.1581 70.7052 29.6865 76.1082 28.6634 79.5084C26.9569 78.4043 24.2492 72.5422 23.8742 71.2285C23.5743 70.1774 23.4264 66.7866 23.39 65.2226C24.2745 59.0545 25.5617 42.7008 25.9978 40.4486C26.6866 37.4457 27.9286 36.2445 30.8114 32.9413C29.9402 38.6319 32.2168 56.8096 32.884 59.7786Z" stroke="url(#paint1_linear_1_407)" stroke-width="1.5"/>
  <path d="M10.8533 29.4393C14.742 29.769 37.0262 13.2236 48.4466 0C51.2821 2.88473 58.9758 6.60874 58.6517 9.24621C58.2467 12.543 58.6517 25.3183 59.4619 27.3788C60.272 29.4393 61.0822 36.8572 62.2974 42.2146C63.2696 46.5005 67.0232 53.6161 68.7785 56.6383C72.0191 60.4846 78.5002 68.5893 78.5002 70.2377C78.5002 72.2982 75.2597 87.9582 72.8292 94.1398C70.3988 100.321 69.5887 109.8 69.5887 112.685C69.5887 114.992 65.808 129.581 63.9177 136.587C60.6771 136.861 53.9529 138.647 52.9808 143.592L52.9529 143.734C51.6986 150.118 47.24 172.809 37.9931 167.082C30.5398 162.467 12.2036 120.927 3.96714 100.733C4.64226 76.8314 6.96466 29.1097 10.8533 29.4393Z" fill="url(#paint2_linear_1_407)"/>
  <path d="M27.1085 72.7299C26.808 70.3256 23.5021 70.9266 23.2015 71.8282C22.901 72.7299 21.6988 98.8765 22.2999 99.1771C22.901 99.4776 25.0048 93.7674 25.3053 92.5653C25.6058 91.3631 27.409 75.1341 27.1085 72.7299Z" fill="url(#paint3_linear_1_407)"/>
  <path d="M21.3983 129.531L21.9994 136.143L6.37148 103.084L6.67201 100.079L9.67738 100.98L21.3983 129.531Z" fill="url(#paint4_linear_1_407)"/>
  <path d="M27.409 141.553H24.7042L25.9063 147.864L37.0262 163.793H40.6326L41.8348 162.29L41.2337 155.678L38.5289 149.667L31.316 145.46L27.409 141.553Z" fill="url(#paint5_linear_1_407)"/>
  <path d="M60.7686 89.56C58.6648 91.0627 54.4573 91.9643 52.9546 91.9643C51.452 91.9643 56.5611 94.6691 56.5611 94.6691C56.5611 94.6691 67.6809 103.385 68.8831 103.084C70.0852 102.784 71.2874 77.8391 70.3858 77.238C69.4841 76.6369 62.8723 88.0573 60.7686 89.56Z" fill="url(#paint6_linear_1_407)"/>
  <path d="M68.8831 105.188C68.5825 104.286 55.96 94.9696 54.1568 95.2701C52.3535 95.5707 50.8509 92.8658 50.5503 95.2701C50.2498 97.6744 46.9439 124.422 51.1514 129.832C55.3589 135.241 59.867 129.832 59.867 129.832C59.867 129.832 63.1729 126.826 64.0745 124.723C64.9761 122.619 67.6809 114.204 68.282 111.8C68.8831 109.395 69.1836 106.089 68.8831 105.188Z" fill="url(#paint7_linear_1_407)"/>
  <path d="M48.4467 130.433C45.1408 128.63 37.6273 129.231 36.4252 130.433C35.223 131.635 37.3268 141.553 38.2284 143.957C39.13 146.361 41.2338 148.465 41.8348 149.667C42.4359 150.869 42.7365 160.186 43.6381 161.388C44.5397 162.59 47.8456 156.279 48.4467 154.476C49.0477 152.673 49.0477 149.667 49.0477 149.667L52.0531 138.547C52.0531 138.547 51.7526 132.236 48.4467 130.433Z" fill="url(#paint8_linear_1_407)"/>
  <path d="M9.97789 91.3633L7.5736 75.1343L6.67199 78.1396L5.77038 97.0735L7.87413 98.2756L9.97789 97.374V91.3633Z" fill="url(#paint9_linear_1_407)"/>
  <path d="M20.1961 117.209C19.595 116.007 16.2891 109.996 15.9886 108.193C15.6881 106.39 23.2015 116.608 23.2015 116.608C23.2015 116.608 32.8187 131.034 33.4197 132.537C34.0208 134.039 34.9224 141.553 35.2229 143.957C35.5235 146.361 23.8025 132.537 23.2015 131.034C22.6004 129.531 20.7972 118.411 20.1961 117.209Z" fill="url(#paint10_linear_1_407)"/>
  <path d="M49.6488 92.5655C49.6488 91.6639 43.6381 83.5494 43.037 82.9483C42.4359 82.3473 41.8348 82.6478 41.5343 82.9483C41.3859 83.0968 35.4178 93.4671 33.4198 96.773C31.4218 100.079 24.4037 111.499 24.4037 111.499C24.4037 111.499 22.6005 113.603 23.5021 114.805C24.4037 116.007 31.3161 126.226 33.4198 127.127C35.5236 128.029 43.037 127.728 44.2391 127.127C45.4413 126.526 47.2445 124.122 47.8456 122.619C48.4466 121.117 49.6488 93.4671 49.6488 92.5655Z" fill="url(#paint11_linear_1_407)"/>
  <path d="M57.4627 83.2486C58.9654 79.6422 59.5665 65.2164 60.4681 65.2164C61.3697 65.2164 69.1837 75.7352 69.1837 76.6368C69.1837 77.5384 61.6703 87.4561 60.4681 88.9588C59.266 90.4615 52.3536 91.9642 52.0531 91.0626C51.7525 90.161 55.9601 86.8551 57.4627 83.2486Z" fill="url(#paint12_linear_1_407)"/>
  <path d="M61.6702 61.3094C62.2713 60.1073 66.7794 55.8997 66.7794 54.9981C66.7794 54.0965 76.3965 67.9212 75.7955 69.7244C75.1944 71.5277 71.2874 76.0357 70.0853 75.4346C68.8831 74.8336 61.6702 66.118 61.3697 64.3148C61.0692 62.5116 61.0692 62.5116 61.6702 61.3094L61.6702 61.3094Z" fill="url(#paint13_linear_1_407)"/>
  <path d="M8.17467 65.8175C8.17467 65.8175 8.4752 38.1681 11.18 40.5724C13.8849 42.9767 15.3875 42.6761 15.087 43.5777C14.7865 44.4794 13.5673 69.4513 13.2838 69.4239L10.579 76.9373L8.17467 65.8175Z" fill="url(#paint14_linear_1_407)"/>
  <path d="M36.4251 12.9231L46.3429 15.3274C46.3429 15.3274 32.969 26.7478 31.0155 28.551C29.062 30.3542 15.9887 40.5725 15.9887 40.5725L11.4806 38.1682L10.8795 35.7639L36.4251 12.9231Z" fill="url(#paint15_linear_1_407)"/>
  <path d="M24.1031 53.1949C23.502 56.5008 22.901 69.4239 23.2015 70.025C23.502 70.626 27.1085 70.3255 27.7095 70.9266C28.3106 71.5276 40.9332 55.5992 40.9332 55.5992C40.9332 55.5992 41.2337 36.9659 41.2337 36.3648C41.2337 35.7638 41.2337 33.9606 40.0315 33.3595C38.8294 32.7584 26.5074 45.982 25.9063 46.5831C25.3053 47.1842 24.7042 49.889 24.1031 53.1949Z" fill="url(#paint16_linear_1_407)"/>
  <path d="M55.0585 20.4366C54.1569 20.7371 53.5558 21.0377 53.2552 23.1414C52.9547 25.2452 55.359 38.1683 55.9601 50.1897C56.5612 62.2112 60.1676 64.315 60.7686 62.2112C61.3697 60.1074 66.7794 55.5994 66.1783 53.7962C65.5772 51.993 61.5475 43.5779 60.7686 39.9715C59.9898 36.365 57.784 23.1828 57.4627 22.5404C56.8617 21.3382 55.9601 20.1361 55.0585 20.4366Z" fill="url(#paint17_linear_1_407)"/>
  <path d="M18.6935 39.9714C18.6935 39.9714 46.6434 15.6279 46.9439 15.6279C47.2445 15.6279 49.9493 17.1306 51.1514 18.9338C52.3536 20.7371 50.2498 22.8408 50.2498 22.8408L28.9117 42.6762L23.2015 49.288L18.6935 42.6762V39.9714Z" fill="url(#paint18_linear_1_407)"/>
  <path d="M43.9385 37.8676C46.0422 29.4525 50.8508 22.8407 51.7524 23.7423C52.6541 24.6439 53.8562 50.7906 54.1567 53.4955C54.4573 56.2003 58.0637 64.0143 58.6648 65.8175C59.2659 67.6207 57.7632 77.8389 57.7632 77.8389C57.7632 77.8389 54.7578 86.5545 51.7524 89.5599C48.7471 92.5652 45.1406 84.7513 43.0369 77.8389C40.9331 70.9266 41.8347 46.2826 43.9385 37.8676Z" fill="url(#paint19_linear_1_407)"/>
  <path d="M28.0101 71.8284C28.3106 71.5278 40.3321 56.2005 40.9332 57.7031C41.5342 59.2058 40.3321 82.6477 40.3321 82.6477C40.3321 82.6477 24.7042 111.8 22.901 110.898C21.0978 109.997 21.3983 100.68 22.6004 100.079C23.8026 99.4777 25.9063 93.467 26.2069 92.2649C26.5074 91.0627 27.7096 72.1289 28.0101 71.8284Z" fill="url(#paint20_linear_1_407)"/>
  <path d="M22.901 50.7908C21.9994 48.3865 18.0432 43.5976 16.5897 44.179C15.1363 44.7604 15.087 48.9876 15.087 48.9876L14.1854 84.4509L11.1801 91.6638V97.374L20.7972 108.193C20.7972 108.193 23.8026 53.1951 22.901 50.7908Z" fill="url(#paint21_linear_1_407)"/>
  <path d="M48.7471 2.4043L37.0262 12.322C37.0262 12.322 45.1407 14.4258 46.9439 15.0268C48.7471 15.6279 52.6541 9.0161 52.6541 6.31127C52.6541 3.60644 51.7525 3.30591 51.7525 3.30591L48.7471 2.4043Z" fill="url(#paint22_linear_1_407)"/>
  <path d="M48.146 15.2273C49.6487 15.1272 53.5557 6.31142 53.5557 6.81231C53.5556 7.3132 56.5611 15.027 56.5611 15.027L52.3536 18.0323C52.3536 18.0323 46.6434 15.3275 48.146 15.2273Z" fill="url(#paint23_linear_1_407)"/>
  <path d="M22.3328 15.8086L25.8949 12.2998M25.8683 15.8353L22.3595 12.2732" stroke="white"/>
  <path d="M55.9928 167.279L59.5549 163.77M59.5283 167.306L56.0195 163.744" stroke="white"/>
  <path d="M84.8445 57.8837L88.4066 54.3749M88.3799 57.9104L84.8711 54.3483" stroke="white"/>
  <path d="M39.7638 93.9481L43.3259 90.4394M43.2993 93.9748L39.7905 90.4127" stroke="white"/>
  <defs>
    <linearGradient id="paint0_linear_1_407" x1="57.5276" y1="7.73512" x2="78.5073" y2="152.361" gradientUnits="userSpaceOnUse">
      <stop stop-color="white"/>
      <stop offset="1" stop-color="white" stop-opacity="0"/>
    </linearGradient>
    <linearGradient id="paint1_linear_1_407" x1="8.27118" y1="32.0833" x2="32.4795" y2="128.917" gradientUnits="userSpaceOnUse">
      <stop stop-color="white"/>
      <stop offset="1" stop-color="white" stop-opacity="0"/>
    </linearGradient>
    <linearGradient id="paint2_linear_1_407" x1="44.4378" y1="-10.2083" x2="35.6878" y2="192.792" gradientUnits="userSpaceOnUse">
      <stop stop-color="#698091"/>
      <stop offset="1" stop-color="#08101C"/>
    </linearGradient>
    <linearGradient id="paint3_linear_1_407" x1="22.6409" y1="69.4699" x2="13.7043" y2="80.6126" gradientUnits="userSpaceOnUse">
      <stop stop-color="#F7F9FA"/>
      <stop offset="1" stop-color="#6D7985"/>
    </linearGradient>
    <linearGradient id="paint4_linear_1_407" x1="7.95335" y1="98.0714" x2="0.985519" y2="119.234" gradientUnits="userSpaceOnUse">
      <stop stop-color="#F7F9FA"/>
      <stop offset="1" stop-color="#6D7985"/>
    </linearGradient>
    <linearGradient id="paint5_linear_1_407" x1="26.4382" y1="140.315" x2="23.8477" y2="154.3" gradientUnits="userSpaceOnUse">
      <stop stop-color="#F7F9FA"/>
      <stop offset="1" stop-color="#6D7985"/>
    </linearGradient>
    <linearGradient id="paint6_linear_1_407" x1="58.3643" y1="94.068" x2="69.5034" y2="94.6834" gradientUnits="userSpaceOnUse">
      <stop stop-color="#EDFD33"/>
      <stop offset="0.458333" stop-color="#AFBE00"/>
      <stop offset="1" stop-color="#171900"/>
    </linearGradient>
    <linearGradient id="paint7_linear_1_407" x1="51.0536" y1="92.1519" x2="44.8127" y2="115.155" gradientUnits="userSpaceOnUse">
      <stop stop-color="#F7F9FA"/>
      <stop offset="1" stop-color="#6D7985"/>
    </linearGradient>
    <linearGradient id="paint8_linear_1_407" x1="37.6819" y1="127.5" x2="32.1092" y2="146.869" gradientUnits="userSpaceOnUse">
      <stop stop-color="#F7F9FA"/>
      <stop offset="1" stop-color="#6D7985"/>
    </linearGradient>
    <linearGradient id="paint9_linear_1_407" x1="6.19627" y1="73.8463" x2="-1.1135" y2="83.1612" gradientUnits="userSpaceOnUse">
      <stop stop-color="#F7F9FA"/>
      <stop offset="1" stop-color="#6D7985"/>
    </linearGradient>
    <linearGradient id="paint10_linear_1_407" x1="17.9282" y1="105.962" x2="12.0175" y2="127.955" gradientUnits="userSpaceOnUse">
      <stop stop-color="#F7F9FA"/>
      <stop offset="1" stop-color="#6D7985"/>
    </linearGradient>
    <linearGradient id="paint11_linear_1_407" x1="40.1819" y1="83" x2="17.284" y2="103.302" gradientUnits="userSpaceOnUse">
      <stop stop-color="#E2E4E7"/>
      <stop offset="1" stop-color="#6D7985"/>
    </linearGradient>
    <linearGradient id="paint12_linear_1_407" x1="53.7733" y1="63.7627" x2="50.2478" y2="79.9839" gradientUnits="userSpaceOnUse">
      <stop stop-color="#F7F9FA"/>
      <stop offset="1" stop-color="#6D7985"/>
    </linearGradient>
    <linearGradient id="paint13_linear_1_407" x1="62.6552" y1="53.8131" x2="60.0872" y2="66.6546" gradientUnits="userSpaceOnUse">
      <stop stop-color="#F7F9FA"/>
      <stop offset="1" stop-color="#6D7985"/>
    </linearGradient>
    <linearGradient id="paint14_linear_1_407" x1="8.93757" y1="73.3895" x2="17.4521" y2="73.3068" gradientUnits="userSpaceOnUse">
      <stop stop-color="#06101A"/>
      <stop offset="1" stop-color="#EDFD33"/>
    </linearGradient>
    <linearGradient id="paint15_linear_1_407" x1="53.6819" y1="18" x2="45.1871" y2="3.20619" gradientUnits="userSpaceOnUse">
      <stop stop-color="#E2E4E7"/>
      <stop offset="1" stop-color="#6D7985"/>
    </linearGradient>
    <linearGradient id="paint16_linear_1_407" x1="28.1819" y1="47" x2="60.1819" y2="55" gradientUnits="userSpaceOnUse">
      <stop stop-color="#EDFD33"/>
      <stop offset="1" stop-color="#06101A"/>
    </linearGradient>
    <linearGradient id="paint17_linear_1_407" x1="59.6819" y1="63" x2="73.129" y2="25.7581" gradientUnits="userSpaceOnUse">
      <stop stop-color="#EDFD33"/>
      <stop offset="0.987" stop-color="#06101A"/>
    </linearGradient>
    <linearGradient id="paint18_linear_1_407" x1="22.0165" y1="13.7545" x2="18.8809" y2="35.1884" gradientUnits="userSpaceOnUse">
      <stop stop-color="#F7F9FA"/>
      <stop offset="1" stop-color="#6D7985"/>
    </linearGradient>
    <linearGradient id="paint19_linear_1_407" x1="43.5569" y1="19.9552" x2="10.2967" y2="62.8944" gradientUnits="userSpaceOnUse">
      <stop stop-color="#E2E4E7"/>
      <stop offset="1" stop-color="#6D7985"/>
    </linearGradient>
    <linearGradient id="paint20_linear_1_407" x1="23.1819" y1="122" x2="54.2191" y2="112.042" gradientUnits="userSpaceOnUse">
      <stop stop-color="#171900"/>
      <stop offset="1" stop-color="#EDFD33"/>
    </linearGradient>
    <linearGradient id="paint21_linear_1_407" x1="29.1819" y1="82" x2="0.181894" y2="98" gradientUnits="userSpaceOnUse">
      <stop stop-color="#EDFD33"/>
      <stop offset="1" stop-color="#06101A"/>
    </linearGradient>
    <linearGradient id="paint22_linear_1_407" x1="38.6081" y1="1.69961" x2="37.6688" y2="9.82575" gradientUnits="userSpaceOnUse">
      <stop stop-color="#F7F9FA"/>
      <stop offset="1" stop-color="#6D7985"/>
    </linearGradient>
    <linearGradient id="paint23_linear_1_407" x1="48.7714" y1="6.16611" x2="42.6595" y2="17.3078" gradientUnits="userSpaceOnUse">
      <stop stop-color="#E2E4E7"/>
      <stop offset="1" stop-color="#6D7985"/>
    </linearGradient>
  </defs>
</svg>