<svg xmlns="http://www.w3.org/2000/svg" width="96" height="170" viewBox="0 0 96 170" fill="none">
  <path d="M78.1762 100.455C81.1027 95.5203 85.9829 82.6261 86.2547 80.8721C86.472 79.4689 81.9109 71.6976 79.6032 67.9874C78.477 65.1786 76.1547 58.6164 75.8755 54.8372C75.7153 52.6701 75.6864 50.1454 75.6604 47.8674C75.6296 45.1796 75.6028 42.8353 75.3689 41.8269C74.9369 39.9639 76.2699 29.0346 77.0565 26.2827C77.2898 25.4669 76.8861 24.0985 76.1796 22.5547C76.0057 22.1747 75.8134 21.7841 75.6078 21.3884M78.1762 100.455C78.784 96.8374 80.4599 88.3082 82.3011 83.1333C81.4405 81.0281 79.1394 77.9419 76.9509 75.0068M78.1762 100.455C77.0225 102.401 76.0199 104.816 75.2054 107.179M75.6078 21.3884C74.3946 19.0543 72.7161 16.5462 71.5952 15.0193C60.077 22.6942 36.207 37.843 32.8725 37.039C29.538 36.235 21.227 76.5449 17.4883 96.8003C21.9799 115.098 32.4296 152.926 38.2954 157.858C40.5608 159.763 41.9849 159.782 44.034 158.029L44.0365 158.027M75.6078 21.3884C64.5829 28.3016 41.5796 41.7002 38.7972 42.986C38.7622 45.9572 40.8177 52.2198 42.7709 52.2229C43.8763 50.6699 66.8653 31.3173 66.8653 31.3173C70.8496 26.5529 70.3522 26.3567 72.9055 23.7377C73.6836 22.6418 74.2235 22.2516 75.6078 21.3884ZM76.9509 75.0068C76.8726 74.9018 76.7944 74.7969 76.7164 74.6923M76.9509 75.0068L76.7164 74.6923M75.2054 107.179C73.9538 110.81 73.146 114.317 72.9155 115.805C72.6112 117.769 67.4031 129.679 64.837 135.388C61.9858 135.186 55.9092 135.801 54.4126 139.88L54.3697 139.996C53.2677 143 50.0097 150.74 46.3466 155.513M75.2054 107.179C73.2167 107.111 68.4331 106.13 65.2085 102.757C63.6834 101.161 62.3904 100.138 61.7662 99.5631C63.6444 95.2922 70.8245 78.4094 73.5946 70.3272C74.4268 71.6104 75.5474 73.1238 76.7164 74.6923M44.0365 158.027C43.9508 157.627 43.6998 157.284 43.4488 156.941C43.416 156.9 43.1303 156.635 43.0964 156.592C41.328 152.963 41.3489 133.199 40.1442 127.234C41.4242 126.824 50.4721 127.313 54.4052 129.461C54.5605 130.204 54.7157 130.946 54.9045 132.053C54.9578 132.365 55.0307 132.687 55.1038 133.008C55.44 134.488 55.7773 135.973 54.1979 136.613C52.2755 137.393 50.5963 138.929 49.9183 140.979C49.6986 141.644 49.305 142.697 48.8642 143.877C47.9452 146.335 46.8208 149.344 46.6372 150.529C46.4198 151.932 46.3529 154.437 46.3466 155.513M44.0365 158.027C44.8135 157.361 45.5887 156.501 46.3466 155.513M23.3673 101.246L23.3657 101.24M23.3673 101.246C23.3668 101.244 23.3662 101.242 23.3657 101.24M23.3673 101.246L23.3685 101.25M23.3673 101.246C23.3677 101.248 23.3681 101.249 23.3685 101.25M23.3657 101.24C23.2541 100.814 23.1604 100.457 23.0896 100.183C26.0439 102.509 32.0041 111.071 33.8279 115.003C36.1076 119.918 37.3374 123.758 38.3163 127.255C38.6722 128.526 41.8174 143.915 41.6919 154.54C41.1319 153.667 40.2843 152.324 40.0317 151.302C38.9246 146.82 35.2742 140.148 32.2259 136.566C29.1776 132.984 27.7044 123.888 27.1121 118.408C26.6485 114.118 24.8595 106.981 23.7804 102.827C23.627 102.236 23.4879 101.706 23.369 101.252L23.3685 101.25M33.4807 97.6138C33.0917 99.3496 32.5333 105.999 33.3343 106.411C33.9677 106.736 41.9739 95.5125 47.8624 88.5894C53.029 86.0445 55.6046 92.2219 56.3576 93.2509C56.9925 94.1186 59.5107 98.6054 60.5393 100.894C57.8868 110.029 53.6256 125.225 53.906 126.869C50.3854 126.649 42.6222 126.158 39.7343 125.954C35.7516 117.258 26.9879 98.8516 23.7943 94.7915C23.9026 94.4416 23.9994 94.129 24.0679 93.8683C29.2713 74.0778 33.4081 57.909 35.5893 49.2809C36.835 48.0105 40.0187 51.4878 42.5997 52.4959C40.9474 58.3069 35.7274 84.5166 33.4807 97.6138ZM72.6459 68.7056C72.1813 69.8481 70.7632 76.9313 68.7769 81.7936C67.2332 85.5726 63.5774 93.7612 61.1233 98.8908C58.6908 96.7248 55.8389 86.784 55.567 84.613C55.3495 82.8762 55.9466 77.4742 56.2723 74.9904C59.1857 65.4469 65.2339 39.8841 66.4769 36.4272C68.3042 31.8444 70.566 30.2484 75.9424 25.7288C73.1672 34.5199 72.3169 63.8435 72.6459 68.7056Z" stroke="url(#paint0_linear_69_243)" stroke-width="1.5"/>
  <path d="M38.7631 78.8434C40.0959 75.5181 41.873 67.0942 41.873 65.9858C41.873 65.099 38.3188 60.7393 36.5417 58.6702C35.5791 57.0445 33.5207 53.2168 32.9876 50.9113C32.6818 49.5892 32.4229 48.0339 32.1892 46.6306C31.9135 44.9748 31.6731 43.5306 31.4326 42.9307C30.9883 41.8223 30.7662 34.9501 30.9883 33.1766C31.0542 32.6508 30.6746 31.8449 30.0916 30.9598C29.9481 30.7419 29.7923 30.5192 29.6277 30.2947M38.7631 78.8434C38.7922 76.5527 39.0108 71.1288 39.6516 67.7592C38.92 66.5423 37.2066 64.8578 35.577 63.2557M38.7631 78.8434C38.2376 80.1543 37.8503 81.7409 37.5738 83.2771M29.6277 30.2947C28.6568 28.9703 27.3825 27.583 26.5456 26.7478C20.1777 32.5855 6.90881 44.2165 4.77631 44.0391C2.6438 43.8618 1.37023 69.5327 1 82.3903C5.51676 93.2528 15.5721 115.598 19.6594 118.081C21.2379 119.04 22.1178 118.916 23.2136 117.638L23.2149 117.636M29.6277 30.2947C23.4912 35.6151 10.5894 46.0832 8.99689 47.1427C9.25913 48.9796 11.1245 52.6479 12.329 52.4631C12.8621 51.399 25.1863 37.258 25.1863 37.258C27.1875 33.9368 26.8622 33.8633 28.1862 32.0029C28.5611 31.2522 28.8567 30.9598 29.6277 30.2947ZM35.577 63.2557C35.5187 63.1984 35.4605 63.1411 35.4024 63.084M35.577 63.2557L35.4024 63.084M37.5738 83.2771C37.149 85.6375 36.986 87.8791 36.986 88.8191C36.986 90.0606 34.9127 97.9082 33.8761 101.677C32.099 101.825 28.4116 102.785 27.8784 105.445L27.8632 105.522C27.4707 107.481 26.2014 112.569 24.399 115.865M37.5738 83.2771C36.3413 83.4249 33.2985 83.2771 30.9883 81.5036C29.8958 80.6649 29.0008 80.1567 28.5611 79.8618C29.3111 77.0466 32.1251 65.9413 33.0609 60.6886C33.6965 61.401 34.5319 62.2278 35.4024 63.084M23.2149 117.636C23.1239 117.398 22.9364 117.211 22.7489 117.023C22.7248 117 22.5233 116.864 22.4983 116.841C21.0615 114.771 19.1866 102.571 17.8742 99.0054C18.6241 98.63 24.2489 98.067 26.8788 99.0166C27.0454 99.4599 27.212 99.9033 27.4342 100.568C27.4968 100.756 27.5725 100.947 27.6482 101.139C27.9969 102.02 28.3466 102.904 27.4342 103.45C26.3235 104.115 25.4349 105.224 25.2128 106.554C25.1408 106.985 24.9988 107.672 24.8396 108.442C24.508 110.048 24.1021 112.012 24.1021 112.761C24.1021 113.648 24.3001 115.199 24.399 115.865M23.2149 117.636C23.6304 117.152 24.0261 116.546 24.399 115.865M5.04906 84.5718L5.04747 84.5682M5.04906 84.5718C5.04853 84.5706 5.048 84.5694 5.04747 84.5682M5.04906 84.5718L5.05019 84.5744L5.05069 84.5756C5.16727 84.844 5.30373 85.1581 5.45473 85.5079C6.51676 87.9683 8.30132 92.2015 8.99689 94.8046C9.88543 98.1299 11.6625 103.603 13.8839 105.522C16.1052 107.441 18.993 111.209 20.1037 113.869C20.357 114.476 21.0079 115.224 21.4365 115.709C20.499 109.14 17.0901 99.9438 16.7492 99.1931C15.8118 97.1286 14.6868 94.8764 12.8119 92.0612C11.312 89.809 6.81979 85.0954 4.77631 83.9421C4.84617 84.1048 4.93801 84.3162 5.04747 84.5682M10.937 81.3633C10.863 82.4717 11.1538 86.6287 11.687 86.8061C12.1085 86.9463 15.9724 79.2545 18.9414 74.4191C21.8835 72.3546 24.0614 75.9205 24.6238 76.4836C25.0982 76.9584 27.0792 79.4865 27.9318 80.8002C27.1692 86.6916 25.9936 96.4771 26.3235 97.4648C24.132 97.6655 19.2991 98.1045 17.4992 98.2547C14.2133 93.2691 7.05245 82.748 4.69579 80.5477C4.72914 80.3215 4.75895 80.1192 4.77631 79.9518C6.0939 67.2411 7.09992 56.8673 7.62051 51.3342C8.26715 50.431 10.562 52.2726 12.2494 52.6479C11.7858 56.3921 11.0711 73.0658 10.937 81.3633ZM32.3211 59.7786C32.1438 60.5281 31.9462 65.0349 31.186 68.2255C30.5952 70.7052 29.1236 76.1082 28.1006 79.5084C26.3941 78.4043 23.6864 72.5422 23.3114 71.2285C23.0114 70.1774 22.8636 66.7866 22.8272 65.2226C23.7117 59.0545 24.9988 42.7008 25.435 40.4486C26.1238 37.4457 27.3657 36.2445 30.2486 32.9413C29.3773 38.6319 31.6539 56.8096 32.3211 59.7786Z" stroke="url(#paint1_linear_69_243)" stroke-width="1.5"/>
  <path d="M10.2905 29.4393C14.1792 29.769 36.4633 13.2236 47.8837 0C50.7192 2.88473 58.413 6.60874 58.0889 9.24621C57.6838 12.543 58.0889 25.3183 58.8991 27.3788C59.7092 29.4393 60.5193 36.8572 61.7346 42.2146C62.7067 46.5005 66.4604 53.6161 68.2157 56.6383C71.4563 60.4846 77.9374 68.5893 77.9374 70.2377C77.9374 72.2982 74.6968 87.9582 72.2664 94.1398C69.836 100.321 69.0258 109.8 69.0258 112.685C69.0258 114.992 65.2452 129.581 63.3548 136.587C60.1143 136.861 53.3901 138.647 52.4179 143.592L52.3901 143.734C51.1357 150.118 46.6772 172.809 37.4303 167.082C29.977 162.467 11.6407 120.927 3.4043 100.733C4.07942 76.8314 6.40182 29.1097 10.2905 29.4393Z" fill="url(#paint2_linear_69_243)"/>
  <path d="M26.5456 72.7299C26.245 70.3256 22.9391 70.9266 22.6386 71.8282C22.3381 72.7299 21.1359 98.8766 21.737 99.1771C22.3381 99.4776 24.4418 93.7674 24.7424 92.5653C25.0429 91.3631 26.8461 75.1341 26.5456 72.7299Z" fill="url(#paint3_linear_69_243)"/>
  <path d="M20.8354 129.531L21.4365 136.143L5.80859 103.084L6.10913 100.079L9.1145 100.98L20.8354 129.531Z" fill="url(#paint4_linear_69_243)"/>
  <path d="M26.8462 141.553H24.1414L25.3435 147.864L36.4634 163.793H40.0698L41.2719 162.29L40.6709 155.678L37.966 149.667L30.7532 145.46L26.8462 141.553Z" fill="url(#paint5_linear_69_243)"/>
  <path d="M60.2058 89.56C58.1021 91.0627 53.8946 91.9643 52.3919 91.9643C50.8892 91.9643 55.9983 94.6691 55.9983 94.6691C55.9983 94.6691 67.1182 103.385 68.3203 103.084C69.5225 102.784 70.7246 77.8391 69.823 77.238C68.9214 76.6369 62.3096 88.0573 60.2058 89.56Z" fill="url(#paint6_linear_69_243)"/>
  <path d="M68.3202 105.188C68.0197 104.286 55.3971 94.9696 53.5939 95.2701C51.7907 95.5707 50.288 92.8658 49.9875 95.2701C49.6869 97.6744 46.381 124.422 50.5885 129.832C54.7961 135.241 59.3041 129.832 59.3041 129.832C59.3041 129.832 62.61 126.826 63.5116 124.723C64.4132 122.619 67.1181 114.204 67.7191 111.8C68.3202 109.395 68.6207 106.089 68.3202 105.188Z" fill="url(#paint7_linear_69_243)"/>
  <path d="M47.8838 130.433C44.5779 128.63 37.0645 129.231 35.8623 130.433C34.6602 131.635 36.7639 141.553 37.6655 143.957C38.5672 146.361 40.6708 148.465 41.2719 149.667C41.873 150.869 42.1735 160.186 43.0751 161.388C43.9767 162.59 47.2827 156.279 47.8838 154.476C48.4849 152.673 48.4849 149.667 48.4849 149.667L51.4902 138.547C51.4902 138.547 51.1897 132.236 47.8838 130.433Z" fill="url(#paint8_linear_69_243)"/>
  <path d="M9.41503 91.3633L7.01074 75.1343L6.10913 78.1396L5.20752 97.0735L7.31128 98.2756L9.41503 97.374V91.3633Z" fill="url(#paint9_linear_69_243)"/>
  <path d="M19.6333 117.209C19.0322 116.007 15.7263 109.996 15.4258 108.193C15.1252 106.39 22.6387 116.608 22.6387 116.608C22.6387 116.608 32.2558 131.034 32.8569 132.537C33.458 134.039 34.3596 141.553 34.6601 143.957C34.9607 146.361 23.2397 132.537 22.6387 131.034C22.0376 129.531 20.2343 118.411 19.6333 117.209Z" fill="url(#paint10_linear_69_243)"/>
  <path d="M49.0859 92.5655C49.0859 91.6639 43.0751 83.5494 42.4741 82.9483C41.873 82.3473 41.2719 82.6478 40.9714 82.9483C40.823 83.0968 34.8549 93.4671 32.8569 96.773C30.8589 100.079 23.8408 111.499 23.8408 111.499C23.8408 111.499 22.0376 113.603 22.9392 114.805C23.8408 116.007 30.7531 126.226 32.8569 127.127C34.9606 128.029 42.4741 127.728 43.6762 127.127C44.8784 126.526 46.6816 124.122 47.2826 122.619C47.8837 121.117 49.0859 93.4671 49.0859 92.5655Z" fill="url(#paint11_linear_69_243)"/>
  <path d="M56.8999 83.2486C58.4026 79.6422 59.0036 65.2164 59.9053 65.2164C60.8069 65.2164 68.6208 75.7352 68.6208 76.6368C68.6208 77.5384 61.1074 87.4561 59.9053 88.9588C58.7031 90.4615 51.7908 91.9642 51.4902 91.0626C51.1897 90.161 55.3972 86.8551 56.8999 83.2486Z" fill="url(#paint12_linear_69_243)"/>
  <path d="M61.1074 61.3094C61.7084 60.1073 66.2165 55.8997 66.2165 54.9981C66.2165 54.0965 75.8336 67.9212 75.2325 69.7244C74.6314 71.5277 70.7246 76.0357 69.5224 75.4346C68.3203 74.8336 61.1074 66.118 60.8068 64.3148C60.5063 62.5116 60.5063 62.5116 61.1074 61.3094Z" fill="url(#paint13_linear_69_243)"/>
  <path d="M7.61182 65.8175C7.61182 65.8175 7.91235 38.1681 10.6172 40.5724C13.322 42.9767 14.8247 42.6761 14.5242 43.5777C14.2236 44.4794 13.0044 69.4513 12.7209 69.4239L10.0161 76.9373L7.61182 65.8175Z" fill="url(#paint14_linear_69_243)"/>
  <path d="M35.8623 12.9231L45.7799 15.3274C45.7799 15.3274 32.4061 26.7478 30.4526 28.551C28.4991 30.3542 15.4258 40.5725 15.4258 40.5725L10.9177 38.1682L10.3167 35.7639L35.8623 12.9231Z" fill="url(#paint15_linear_69_243)"/>
  <path d="M23.5404 53.1949C22.9393 56.5008 22.3382 69.4239 22.6388 70.025C22.9393 70.626 26.5457 70.3255 27.1468 70.9266C27.7479 71.5276 40.3704 55.5992 40.3704 55.5992C40.3704 55.5992 40.671 36.9659 40.671 36.3648C40.671 35.7638 40.671 33.9606 39.4688 33.3595C38.2667 32.7584 25.9447 45.982 25.3436 46.5831C24.7425 47.1842 24.1414 49.889 23.5404 53.1949Z" fill="url(#paint16_linear_69_243)"/>
  <path d="M54.4956 20.4366C53.594 20.7371 52.9929 21.0377 52.6924 23.1414C52.3918 25.2452 54.7961 38.1683 55.3972 50.1897C55.9983 62.2112 59.6047 64.315 60.2058 62.2112C60.8069 60.1074 66.2165 55.5994 65.6154 53.7962C65.0144 51.993 60.9847 43.5779 60.2058 39.9715C59.4269 36.365 57.2211 23.1828 56.8999 22.5404C56.2988 21.3382 55.3972 20.1361 54.4956 20.4366Z" fill="url(#paint17_linear_69_243)"/>
  <path d="M18.1306 39.9714C18.1306 39.9714 46.0805 15.6279 46.3811 15.6279C46.6816 15.6279 49.3864 17.1306 50.5886 18.9338C51.7907 20.7371 49.687 22.8408 49.687 22.8408L28.3489 42.6762L22.6387 49.288L18.1306 42.6762V39.9714Z" fill="url(#paint18_linear_69_243)"/>
  <path d="M43.3756 37.8676C45.4794 29.4525 50.288 22.8407 51.1896 23.7423C52.0912 24.6439 53.2933 50.7906 53.5939 53.4955C53.8944 56.2003 57.5008 64.0143 58.1019 65.8175C58.703 67.6207 57.2003 77.8389 57.2003 77.8389C57.2003 77.8389 54.1949 86.5545 51.1896 89.5599C48.1842 92.5652 44.5777 84.7513 42.474 77.8389C40.3702 70.9266 41.2719 46.2826 43.3756 37.8676Z" fill="url(#paint19_linear_69_243)"/>
  <path d="M27.4473 71.8284C27.7478 71.5278 39.7693 56.2005 40.3703 57.7031C40.9714 59.2058 39.7693 82.6477 39.7693 82.6477C39.7693 82.6477 24.1413 111.8 22.3381 110.898C20.5349 109.997 20.8354 100.68 22.0376 100.079C23.2397 99.4777 25.3435 93.467 25.644 92.2649C25.9446 91.0627 27.1467 72.1289 27.4473 71.8284Z" fill="url(#paint20_linear_69_243)"/>
  <path d="M22.3381 50.7908C21.4365 48.3865 17.4803 43.5976 16.0268 44.179C14.5734 44.7604 14.5242 48.9876 14.5242 48.9876L13.6226 84.4509L10.6172 91.6638V97.374L20.2344 108.193C20.2344 108.193 23.2397 53.1951 22.3381 50.7908Z" fill="url(#paint21_linear_69_243)"/>
  <path d="M48.1843 2.4043L36.4634 12.322C36.4634 12.322 44.5779 14.4258 46.3811 15.0268C48.1843 15.6279 52.0913 9.0161 52.0913 6.31127C52.0913 3.60644 51.1897 3.30591 51.1897 3.30591L48.1843 2.4043Z" fill="url(#paint22_linear_69_243)"/>
  <path d="M47.5832 15.2273C49.0858 15.1272 52.9929 6.31142 52.9928 6.81231C52.9928 7.3132 55.9982 15.027 55.9982 15.027L51.7907 18.0323C51.7907 18.0323 46.0805 15.3275 47.5832 15.2273Z" fill="url(#paint23_linear_69_243)"/>
  <path d="M21.77 15.8086L25.3321 12.2998M25.3054 15.8353L21.7966 12.2732" stroke="white"/>
  <path d="M55.4299 167.279L58.992 163.77M58.9653 167.306L55.4565 163.744" stroke="white"/>
  <path d="M84.2815 57.8837L87.8436 54.3749M87.817 57.9104L84.3082 54.3483" stroke="white"/>
  <path d="M39.2009 93.9481L42.763 90.4394M42.7363 93.9748L39.2276 90.4127" stroke="white"/>
  <defs>
    <linearGradient id="paint0_linear_69_243" x1="56.9648" y1="7.73512" x2="77.9446" y2="152.361" gradientUnits="userSpaceOnUse">
      <stop stop-color="white"/>
      <stop offset="1" stop-color="white" stop-opacity="0"/>
    </linearGradient>
    <linearGradient id="paint1_linear_69_243" x1="7.70833" y1="32.0833" x2="31.9167" y2="128.917" gradientUnits="userSpaceOnUse">
      <stop stop-color="white"/>
      <stop offset="1" stop-color="white" stop-opacity="0"/>
    </linearGradient>
    <linearGradient id="paint2_linear_69_243" x1="43.875" y1="-10.2083" x2="35.125" y2="192.792" gradientUnits="userSpaceOnUse">
      <stop stop-color="#698091"/>
      <stop offset="1" stop-color="#08101C"/>
    </linearGradient>
    <linearGradient id="paint3_linear_69_243" x1="22.2918" y1="96.5382" x2="10.5759" y2="102.833" gradientUnits="userSpaceOnUse">
      <stop stop-color="#EDFD33"/>
      <stop offset="1" stop-color="#091929"/>
    </linearGradient>
    <linearGradient id="paint4_linear_69_243" x1="7.39047" y1="98.0714" x2="0.42264" y2="119.234" gradientUnits="userSpaceOnUse">
      <stop stop-color="#F7F9FA"/>
      <stop offset="1" stop-color="#6D7985"/>
    </linearGradient>
    <linearGradient id="paint5_linear_69_243" x1="25.8753" y1="140.315" x2="23.2849" y2="154.3" gradientUnits="userSpaceOnUse">
      <stop stop-color="#F7F9FA"/>
      <stop offset="1" stop-color="#6D7985"/>
    </linearGradient>
    <linearGradient id="paint6_linear_69_243" x1="57.8015" y1="94.068" x2="68.9406" y2="94.6834" gradientUnits="userSpaceOnUse">
      <stop stop-color="#EDFD33"/>
      <stop offset="0.458333" stop-color="#AFBE00"/>
      <stop offset="1" stop-color="#171900"/>
    </linearGradient>
    <linearGradient id="paint7_linear_69_243" x1="50.4908" y1="92.1519" x2="44.2498" y2="115.155" gradientUnits="userSpaceOnUse">
      <stop stop-color="#F7F9FA"/>
      <stop offset="1" stop-color="#6D7985"/>
    </linearGradient>
    <linearGradient id="paint8_linear_69_243" x1="37.119" y1="127.5" x2="31.5463" y2="146.869" gradientUnits="userSpaceOnUse">
      <stop stop-color="#F7F9FA"/>
      <stop offset="1" stop-color="#6D7985"/>
    </linearGradient>
    <linearGradient id="paint9_linear_69_243" x1="5.63341" y1="73.8463" x2="-1.67636" y2="83.1612" gradientUnits="userSpaceOnUse">
      <stop stop-color="#F7F9FA"/>
      <stop offset="1" stop-color="#6D7985"/>
    </linearGradient>
    <linearGradient id="paint10_linear_69_243" x1="17.3654" y1="105.962" x2="11.4546" y2="127.955" gradientUnits="userSpaceOnUse">
      <stop stop-color="#F7F9FA"/>
      <stop offset="1" stop-color="#6D7985"/>
    </linearGradient>
    <linearGradient id="paint11_linear_69_243" x1="40.619" y1="76.5" x2="-0.198419" y2="108.91" gradientUnits="userSpaceOnUse">
      <stop stop-color="#EDFD33"/>
      <stop offset="1" stop-color="#06101A"/>
    </linearGradient>
    <linearGradient id="paint12_linear_69_243" x1="60.119" y1="72.5" x2="69.119" y2="76.5" gradientUnits="userSpaceOnUse">
      <stop stop-color="#EDFD33"/>
      <stop offset="1" stop-color="#06101A"/>
    </linearGradient>
    <linearGradient id="paint13_linear_69_243" x1="58.119" y1="60" x2="68.1332" y2="59.9714" gradientUnits="userSpaceOnUse">
      <stop stop-color="#F2FE66"/>
      <stop offset="1" stop-color="#06101A"/>
    </linearGradient>
    <linearGradient id="paint14_linear_69_243" x1="8.37472" y1="73.3895" x2="16.8893" y2="73.3068" gradientUnits="userSpaceOnUse">
      <stop stop-color="#06101A"/>
      <stop offset="1" stop-color="#EDFD33"/>
    </linearGradient>
    <linearGradient id="paint15_linear_69_243" x1="39.6189" y1="31" x2="25.4973" y2="19.6515" gradientUnits="userSpaceOnUse">
      <stop stop-color="#F2FE66"/>
      <stop offset="1" stop-color="#06101A"/>
    </linearGradient>
    <linearGradient id="paint16_linear_69_243" x1="27.6192" y1="47" x2="59.6192" y2="55" gradientUnits="userSpaceOnUse">
      <stop stop-color="#EDFD33"/>
      <stop offset="1" stop-color="#06101A"/>
    </linearGradient>
    <linearGradient id="paint17_linear_69_243" x1="59.119" y1="63" x2="72.5661" y2="25.7581" gradientUnits="userSpaceOnUse">
      <stop stop-color="#EDFD33"/>
      <stop offset="0.987" stop-color="#06101A"/>
    </linearGradient>
    <linearGradient id="paint18_linear_69_243" x1="23.1191" y1="52" x2="52.9633" y2="18.6829" gradientUnits="userSpaceOnUse">
      <stop stop-color="#06101A"/>
      <stop offset="1" stop-color="#E9FD00"/>
    </linearGradient>
    <linearGradient id="paint19_linear_69_243" x1="44.6191" y1="27.5" x2="56.119" y2="108.5" gradientUnits="userSpaceOnUse">
      <stop stop-color="#E9FD00"/>
      <stop offset="1" stop-color="#06101A"/>
    </linearGradient>
    <linearGradient id="paint20_linear_69_243" x1="22.6191" y1="122" x2="53.6562" y2="112.042" gradientUnits="userSpaceOnUse">
      <stop stop-color="#171900"/>
      <stop offset="1" stop-color="#EDFD33"/>
    </linearGradient>
    <linearGradient id="paint21_linear_69_243" x1="28.619" y1="82" x2="-0.380993" y2="98" gradientUnits="userSpaceOnUse">
      <stop stop-color="#EDFD33"/>
      <stop offset="1" stop-color="#06101A"/>
    </linearGradient>
    <linearGradient id="paint22_linear_69_243" x1="38.2666" y1="13.5242" x2="52.6191" y2="8" gradientUnits="userSpaceOnUse">
      <stop stop-color="#F2FE66"/>
      <stop offset="1" stop-color="#06101A"/>
    </linearGradient>
    <linearGradient id="paint23_linear_69_243" x1="45.619" y1="12" x2="55.7772" y2="14.6478" gradientUnits="userSpaceOnUse">
      <stop stop-color="#EDFD33"/>
      <stop offset="1" stop-color="#06101A"/>
    </linearGradient>
  </defs>
</svg>