<svg xmlns="http://www.w3.org/2000/svg" width="96" height="170" viewBox="0 0 96 170" fill="none">
  <path d="M78.1532 100.455C81.0797 95.5203 85.9599 82.6261 86.2317 80.8721C86.4491 79.4689 81.888 71.6976 79.5802 67.9874C78.454 65.1786 76.1318 58.6164 75.8525 54.8372C75.6924 52.6701 75.6635 50.1454 75.6374 47.8674C75.6066 45.1796 75.5798 42.8353 75.3459 41.8269C74.9139 39.9639 76.2469 29.0346 77.0336 26.2827C77.2668 25.4669 76.8631 24.0985 76.1566 22.5547C75.9827 22.1747 75.7904 21.7841 75.5848 21.3884M78.1532 100.455C78.761 96.8374 80.4369 88.3082 82.2781 83.1333C81.4175 81.0281 79.1164 77.9419 76.9279 75.0068M78.1532 100.455C76.9995 102.401 75.997 104.816 75.1824 107.179M75.5848 21.3884C74.3716 19.0543 72.6931 16.5462 71.5722 15.0193C60.054 22.6942 36.184 37.843 32.8495 37.039C29.515 36.235 21.204 76.5449 17.4653 96.8003C21.9569 115.098 32.4066 152.926 38.2724 157.858C40.5378 159.763 41.9619 159.782 44.011 158.029L44.0135 158.027M75.5848 21.3884C64.56 28.3016 41.5566 41.7002 38.7742 42.986C38.7392 45.9572 40.7947 52.2198 42.7479 52.2229C43.8533 50.6699 66.8423 31.3173 66.8423 31.3173C70.8266 26.5529 70.3292 26.3567 72.8826 23.7377C73.6606 22.6418 74.2005 22.2516 75.5848 21.3884ZM76.9279 75.0068C76.8496 74.9018 76.7714 74.7969 76.6934 74.6923M76.9279 75.0068L76.6934 74.6923M75.1824 107.179C73.9308 110.81 73.123 114.317 72.8925 115.805C72.5882 117.769 67.3801 129.679 64.8141 135.388C61.9628 135.186 55.8862 135.801 54.3896 139.88L54.3467 139.996C53.2447 143 49.9867 150.74 46.3236 155.513M75.1824 107.179C73.1937 107.111 68.4102 106.13 65.1855 102.757C63.6604 101.161 62.3674 100.138 61.7432 99.5631C63.6214 95.2922 70.8015 78.4094 73.5716 70.3272C74.4038 71.6104 75.5244 73.1238 76.6934 74.6923M44.0135 158.027C43.9278 157.627 43.6768 157.284 43.4258 156.941C43.393 156.9 43.1074 156.635 43.0734 156.592C41.305 152.963 41.3259 133.199 40.1212 127.234C41.4012 126.824 50.4491 127.313 54.3823 129.461C54.5375 130.204 54.6927 130.946 54.8815 132.053C54.9348 132.365 55.0078 132.687 55.0808 133.008C55.417 134.488 55.7543 135.973 54.175 136.613C52.2525 137.393 50.5733 138.929 49.8953 140.979C49.6756 141.644 49.282 142.697 48.8412 143.877C47.9223 146.335 46.7979 149.344 46.6142 150.529C46.3968 151.932 46.3299 154.437 46.3236 155.513M44.0135 158.027C44.7906 157.361 45.5658 156.501 46.3236 155.513M23.3443 101.246L23.3427 101.24M23.3443 101.246C23.3438 101.244 23.3432 101.242 23.3427 101.24M23.3443 101.246L23.3455 101.25M23.3443 101.246C23.3447 101.248 23.3451 101.249 23.3455 101.25M23.3427 101.24C23.2311 100.814 23.1374 100.457 23.0667 100.183C26.0209 102.509 31.9811 111.071 33.8049 115.003C36.0846 119.918 37.3144 123.758 38.2933 127.255C38.6492 128.526 41.7944 143.915 41.669 154.54C41.1089 153.667 40.2613 152.324 40.0088 151.302C38.9016 146.82 35.2512 140.148 32.2029 136.566C29.1547 132.984 27.6814 123.888 27.0891 118.408C26.6255 114.118 24.8365 106.981 23.7574 102.827C23.604 102.236 23.4649 101.706 23.346 101.252L23.3455 101.25M33.4577 97.6138C33.0687 99.3496 32.5103 105.999 33.3113 106.411C33.9447 106.736 41.9509 95.5125 47.8395 88.5894C53.006 86.0445 55.5816 92.2219 56.3346 93.2509C56.9695 94.1186 59.4877 98.6054 60.5163 100.894C57.8638 110.029 53.6026 125.225 53.883 126.869C50.3624 126.649 42.5993 126.158 39.7113 125.954C35.7287 117.258 26.9649 98.8516 23.7713 94.7915C23.8796 94.4416 23.9764 94.129 24.0449 93.8683C29.2483 74.0778 33.3852 57.909 35.5663 49.2809C36.812 48.0105 39.9958 51.4878 42.5767 52.4959C40.9244 58.3069 35.7044 84.5166 33.4577 97.6138ZM72.6229 68.7056C72.1583 69.8481 70.7403 76.9313 68.7539 81.7936C67.2102 85.5726 63.5544 93.7612 61.1003 98.8908C58.6678 96.7248 55.8159 86.784 55.544 84.613C55.3265 82.8762 55.9236 77.4742 56.2494 74.9904C59.1627 65.4469 65.2109 39.8841 66.454 36.4272C68.2812 31.8444 70.543 30.2484 75.9194 25.7288C73.1442 34.5199 72.2939 63.8435 72.6229 68.7056Z" stroke="url(#paint0_linear_69_272)" stroke-width="1.5"/>
  <path d="M38.7401 78.8434C40.0729 75.5181 41.85 67.0942 41.85 65.9858C41.85 65.099 38.2958 60.7393 36.5187 58.6702C35.5562 57.0445 33.4977 53.2168 32.9646 50.9113C32.6589 49.5892 32.3999 48.0339 32.1662 46.6306C31.8905 44.9748 31.6501 43.5306 31.4096 42.9307C30.9653 41.8223 30.7432 34.9501 30.9653 33.1766C31.0312 32.6508 30.6516 31.8449 30.0686 30.9598C29.9251 30.7419 29.7693 30.5192 29.6047 30.2947M38.7401 78.8434C38.7693 76.5527 38.9878 71.1288 39.6286 67.7592C38.897 66.5423 37.1836 64.8578 35.554 63.2557M38.7401 78.8434C38.2147 80.1543 37.8273 81.7409 37.5509 83.2771M29.6047 30.2947C28.6338 28.9703 27.3595 27.583 26.5226 26.7478C20.1547 32.5855 6.88586 44.2165 4.75336 44.0391C2.62086 43.8618 1.34728 69.5327 0.977051 82.3903C5.49381 93.2528 15.5491 115.598 19.6364 118.081C21.215 119.04 22.0948 118.916 23.1906 117.638L23.1919 117.636M29.6047 30.2947C23.4682 35.6151 10.5664 46.0832 8.97394 47.1427C9.23618 48.9796 11.1015 52.6479 12.306 52.4631C12.8391 51.399 25.1633 37.258 25.1633 37.258C27.1645 33.9368 26.8392 33.8633 28.1632 32.0029C28.5382 31.2522 28.8337 30.9598 29.6047 30.2947ZM35.554 63.2557C35.4957 63.1984 35.4375 63.1411 35.3794 63.084M35.554 63.2557L35.3794 63.084M37.5509 83.2771C37.126 85.6375 36.963 87.8791 36.963 88.8191C36.963 90.0606 34.8897 97.9082 33.8531 101.677C32.076 101.825 28.3886 102.785 27.8554 105.445L27.8402 105.522C27.4477 107.481 26.1784 112.569 24.376 115.865M37.5509 83.2771C36.3183 83.4249 33.2756 83.2771 30.9653 81.5036C29.8728 80.6649 28.9778 80.1567 28.5382 79.8618C29.2881 77.0466 32.1021 65.9413 33.0379 60.6886C33.6735 61.401 34.5089 62.2278 35.3794 63.084M23.1919 117.636C23.1009 117.398 22.9134 117.211 22.7259 117.023C22.7018 117 22.5003 116.864 22.4753 116.841C21.0385 114.771 19.1636 102.571 17.8512 99.0054C18.6011 98.63 24.2259 98.067 26.8558 99.0166C27.0224 99.4599 27.189 99.9033 27.4112 100.568C27.4738 100.756 27.5495 100.947 27.6252 101.139C27.9739 102.02 28.3237 102.904 27.4112 103.45C26.3005 104.115 25.412 105.224 25.1898 106.554C25.1178 106.985 24.9758 107.672 24.8167 108.442C24.485 110.048 24.0791 112.012 24.0791 112.761C24.0791 113.648 24.2771 115.199 24.376 115.865M23.1919 117.636C23.6074 117.152 24.0031 116.546 24.376 115.865M5.02611 84.5718L5.02452 84.5682M5.02611 84.5718C5.02558 84.5706 5.02505 84.5694 5.02452 84.5682M5.02611 84.5718L5.02724 84.5744L5.02774 84.5756C5.14433 84.844 5.28078 85.1581 5.43178 85.5079C6.49382 87.9683 8.27838 92.2015 8.97394 94.8046C9.86248 98.1299 11.6395 103.603 13.8609 105.522C16.0822 107.441 18.97 111.209 20.0807 113.869C20.334 114.476 20.9849 115.224 21.4135 115.709C20.4761 109.14 17.0671 99.9438 16.7262 99.1931C15.7888 97.1286 14.6638 94.8764 12.7889 92.0612C11.289 89.809 6.79684 85.0954 4.75336 83.9421C4.82322 84.1048 4.91506 84.3162 5.02452 84.5682M10.914 81.3633C10.84 82.4717 11.1309 86.6287 11.664 86.8061C12.0855 86.9463 15.9494 79.2545 18.9184 74.4191C21.8605 72.3546 24.0384 75.9205 24.6008 76.4836C25.0752 76.9584 27.0562 79.4865 27.9088 80.8002C27.1462 86.6916 25.9706 96.4771 26.3005 97.4648C24.109 97.6655 19.2761 98.1045 17.4762 98.2547C14.1903 93.2691 7.02951 82.748 4.67284 80.5477C4.7062 80.3215 4.736 80.1192 4.75336 79.9518C6.07095 67.2411 7.07697 56.8673 7.59756 51.3342C8.2442 50.431 10.539 52.2726 12.2265 52.6479C11.7629 56.3921 11.0481 73.0658 10.914 81.3633ZM32.2982 59.7786C32.1209 60.5281 31.9232 65.0349 31.163 68.2255C30.5722 70.7052 29.1006 76.1082 28.0776 79.5084C26.3711 78.4043 23.6634 72.5422 23.2884 71.2285C22.9884 70.1774 22.8406 66.7866 22.8042 65.2226C23.6887 59.0545 24.9758 42.7008 25.412 40.4486C26.1008 37.4457 27.3427 36.2445 30.2256 32.9413C29.3543 38.6319 31.6309 56.8096 32.2982 59.7786Z" stroke="url(#paint1_linear_69_272)" stroke-width="1.5"/>
  <path d="M10.2675 29.4393C14.1562 29.769 36.4403 13.2236 47.8607 0C50.6962 2.88473 58.39 6.60874 58.0659 9.24621C57.6608 12.543 58.0659 25.3183 58.8761 27.3788C59.6862 29.4393 60.4963 36.8572 61.7116 42.2146C62.6837 46.5005 66.4374 53.6161 68.1927 56.6383C71.4333 60.4846 77.9144 68.5893 77.9144 70.2377C77.9144 72.2982 74.6738 87.9582 72.2434 94.1398C69.813 100.321 69.0028 109.8 69.0028 112.685C69.0028 114.992 65.2222 129.581 63.3318 136.587C60.0913 136.861 53.3671 138.647 52.3949 143.592L52.3671 143.734C51.1127 150.118 46.6542 172.809 37.4073 167.082C29.954 162.467 11.6178 120.927 3.38135 100.733C4.05647 76.8314 6.37888 29.1097 10.2675 29.4393Z" fill="url(#paint2_linear_69_272)"/>
  <path d="M26.5227 72.7299C26.2221 70.3256 22.9162 70.9266 22.6157 71.8282C22.3152 72.7299 21.113 98.8766 21.7141 99.1771C22.3152 99.4776 24.4189 93.7674 24.7195 92.5653C25.02 91.3631 26.8232 75.1341 26.5227 72.7299Z" fill="url(#paint3_linear_69_272)"/>
  <path d="M20.8127 129.531L21.4138 136.143L5.78589 103.084L6.08642 100.079L9.09179 100.98L20.8127 129.531Z" fill="url(#paint4_linear_69_272)"/>
  <path d="M26.8232 141.553H24.1184L25.3205 147.864L36.4404 163.793H40.0468L41.249 162.29L40.6479 155.678L37.9431 149.667L30.7302 145.46L26.8232 141.553Z" fill="url(#paint5_linear_69_272)"/>
  <path d="M60.1829 89.56C58.0791 91.0627 53.8716 91.9643 52.3689 91.9643C50.8662 91.9643 55.9754 94.6691 55.9754 94.6691C55.9754 94.6691 67.0952 103.385 68.2974 103.084C69.4995 102.784 70.7016 77.8391 69.8 77.238C68.8984 76.6369 62.2866 88.0573 60.1829 89.56Z" fill="url(#paint6_linear_69_272)"/>
  <path d="M68.2972 105.188C67.9967 104.286 55.3741 94.9696 53.5709 95.2701C51.7677 95.5707 50.265 92.8658 49.9645 95.2701C49.6639 97.6744 46.358 124.422 50.5655 129.832C54.7731 135.241 59.2811 129.832 59.2811 129.832C59.2811 129.832 62.587 126.826 63.4886 124.723C64.3902 122.619 67.0951 114.204 67.6962 111.8C68.2972 109.395 68.5977 106.089 68.2972 105.188Z" fill="url(#paint7_linear_69_272)"/>
  <path d="M47.8608 130.433C44.5549 128.63 37.0415 129.231 35.8393 130.433C34.6372 131.635 36.7409 141.553 37.6426 143.957C38.5442 146.361 40.6479 148.465 41.249 149.667C41.8501 150.869 42.1506 160.186 43.0522 161.388C43.9538 162.59 47.2597 156.279 47.8608 154.476C48.4619 152.673 48.4619 149.667 48.4619 149.667L51.4672 138.547C51.4672 138.547 51.1667 132.236 47.8608 130.433Z" fill="url(#paint8_linear_69_272)"/>
  <path d="M9.39208 91.3633L6.98779 75.1343L6.08618 78.1396L5.18457 97.0735L7.28833 98.2756L9.39208 97.374V91.3633Z" fill="url(#paint9_linear_69_272)"/>
  <path d="M19.6103 117.209C19.0092 116.007 15.7033 109.996 15.4028 108.193C15.1022 106.39 22.6157 116.608 22.6157 116.608C22.6157 116.608 32.2329 131.034 32.8339 132.537C33.435 134.039 34.3366 141.553 34.6371 143.957C34.9377 146.361 23.2167 132.537 22.6157 131.034C22.0146 129.531 20.2114 118.411 19.6103 117.209Z" fill="url(#paint10_linear_69_272)"/>
  <path d="M49.0632 92.5655C49.0632 91.6639 43.0524 83.5494 42.4514 82.9483C41.8503 82.3473 41.2492 82.6478 40.9487 82.9483C40.8003 83.0968 34.8322 93.4671 32.8342 96.773C30.8362 100.079 23.8181 111.499 23.8181 111.499C23.8181 111.499 22.0149 113.603 22.9165 114.805C23.8181 116.007 30.7304 126.226 32.8342 127.127C34.938 128.029 42.4514 127.728 43.6535 127.127C44.8557 126.526 46.6589 124.122 47.26 122.619C47.861 121.117 49.0632 93.4671 49.0632 92.5655Z" fill="url(#paint11_linear_69_272)"/>
  <path d="M56.8769 83.2486C58.3796 79.6422 58.9807 65.2164 59.8823 65.2164C60.7839 65.2164 68.5978 75.7352 68.5978 76.6368C68.5979 77.5384 61.0844 87.4561 59.8823 88.9588C58.6801 90.4615 51.7678 91.9642 51.4672 91.0626C51.1667 90.161 55.3742 86.8551 56.8769 83.2486Z" fill="url(#paint12_linear_69_272)"/>
  <path d="M61.0844 61.3094C61.6855 60.1073 66.1935 55.8997 66.1935 54.9981C66.1935 54.0965 75.8107 67.9212 75.2096 69.7244C74.6085 71.5277 70.7016 76.0357 69.4994 75.4346C68.2973 74.8336 61.0844 66.118 60.7839 64.3148C60.4833 62.5116 60.4833 62.5116 61.0844 61.3094Z" fill="url(#paint13_linear_69_272)"/>
  <path d="M7.58887 65.8175C7.58887 65.8175 7.8894 38.1681 10.5942 40.5724C13.299 42.9767 14.8017 42.6761 14.5012 43.5777C14.2006 44.4794 12.9814 69.4513 12.698 69.4239L9.99316 76.9373L7.58887 65.8175Z" fill="url(#paint14_linear_69_272)"/>
  <path d="M35.8393 12.9231L45.7571 15.3274C45.7571 15.3274 32.3832 26.7478 30.4297 28.551C28.4762 30.3542 15.4028 40.5725 15.4028 40.5725L10.8948 38.1682L10.2937 35.7639L35.8393 12.9231Z" fill="url(#paint15_linear_69_272)"/>
  <path d="M23.5175 53.1949C22.9164 56.5008 22.3153 69.4239 22.6159 70.025C22.9164 70.626 26.5228 70.3255 27.1239 70.9266C27.725 71.5276 40.3475 55.5992 40.3475 55.5992C40.3475 55.5992 40.6481 36.9659 40.6481 36.3648C40.6481 35.7638 40.6481 33.9606 39.4459 33.3595C38.2438 32.7584 25.9218 45.982 25.3207 46.5831C24.7196 47.1842 24.1185 49.889 23.5175 53.1949Z" fill="url(#paint16_linear_69_272)"/>
  <path d="M54.4726 20.4366C53.571 20.7371 52.9699 21.0377 52.6694 23.1414C52.3689 25.2452 54.7731 38.1683 55.3742 50.1897C55.9753 62.2112 59.5817 64.315 60.1828 62.2112C60.7839 60.1074 66.1935 55.5994 65.5925 53.7962C64.9914 51.993 60.9617 43.5779 60.1828 39.9715C59.4039 36.365 57.1981 23.1828 56.8769 22.5404C56.2758 21.3382 55.3742 20.1361 54.4726 20.4366Z" fill="url(#paint17_linear_69_272)"/>
  <path d="M18.1077 39.9714C18.1077 39.9714 46.0576 15.6279 46.3582 15.6279C46.6587 15.6279 49.3635 17.1306 50.5657 18.9338C51.7678 20.7371 49.6641 22.8408 49.6641 22.8408L28.326 42.6762L22.6158 49.288L18.1077 42.6762V39.9714Z" fill="url(#paint18_linear_69_272)"/>
  <path d="M43.3527 37.8676C45.4564 29.4525 50.265 22.8407 51.1666 23.7423C52.0683 24.6439 53.2704 50.7906 53.5709 53.4955C53.8715 56.2003 57.4779 64.0143 58.079 65.8175C58.68 67.6207 57.1774 77.8389 57.1774 77.8389C57.1774 77.8389 54.172 86.5545 51.1666 89.5599C48.1613 92.5652 44.5548 84.7513 42.4511 77.8389C40.3473 70.9266 41.2489 46.2826 43.3527 37.8676Z" fill="url(#paint19_linear_69_272)"/>
  <path d="M27.4243 71.8284C27.7248 71.5278 39.7463 56.2005 40.3473 57.7031C40.9484 59.2058 39.7463 82.6477 39.7463 82.6477C39.7463 82.6477 24.1183 111.8 22.3151 110.898C20.5119 109.997 20.8124 100.68 22.0146 100.079C23.2168 99.4777 25.3205 93.467 25.621 92.2649C25.9216 91.0627 27.1237 72.1289 27.4243 71.8284Z" fill="url(#paint20_linear_69_272)"/>
  <path d="M22.3151 50.7908C21.4135 48.3865 17.4573 43.5976 16.0039 44.179C14.5504 44.7604 14.5012 48.9876 14.5012 48.9876L13.5996 84.4509L10.5942 91.6638V97.374L20.2114 108.193C20.2114 108.193 23.2167 53.1951 22.3151 50.7908Z" fill="url(#paint21_linear_69_272)"/>
  <path d="M48.1613 2.4043L36.4404 12.322C36.4404 12.322 44.5549 14.4258 46.3581 15.0268C48.1613 15.6279 52.0683 9.0161 52.0683 6.31127C52.0683 3.60644 51.1667 3.30591 51.1667 3.30591L48.1613 2.4043Z" fill="url(#paint22_linear_69_272)"/>
  <path d="M47.5603 15.2273C49.0629 15.1272 52.97 6.31142 52.9699 6.81231C52.9699 7.3132 55.9753 15.027 55.9753 15.027L51.7678 18.0323C51.7678 18.0323 46.0576 15.3275 47.5603 15.2273Z" fill="url(#paint23_linear_69_272)"/>
  <path d="M21.7471 15.8086L25.3092 12.2998M25.2825 15.8353L21.7738 12.2732" stroke="white"/>
  <path d="M55.407 167.279L58.9691 163.77M58.9425 167.306L55.4337 163.744" stroke="white"/>
  <path d="M84.2588 57.8837L87.8209 54.3749M87.7942 57.9104L84.2854 54.3483" stroke="white"/>
  <path d="M39.1782 93.9481L42.7403 90.4394M42.7137 93.9748L39.2049 90.4127" stroke="white"/>
  <defs>
    <linearGradient id="paint0_linear_69_272" x1="56.9418" y1="7.73512" x2="77.9216" y2="152.361" gradientUnits="userSpaceOnUse">
      <stop stop-color="white"/>
      <stop offset="1" stop-color="white" stop-opacity="0"/>
    </linearGradient>
    <linearGradient id="paint1_linear_69_272" x1="7.68539" y1="32.0833" x2="31.8937" y2="128.917" gradientUnits="userSpaceOnUse">
      <stop stop-color="white"/>
      <stop offset="1" stop-color="white" stop-opacity="0"/>
    </linearGradient>
    <linearGradient id="paint2_linear_69_272" x1="43.852" y1="-10.2083" x2="35.102" y2="192.792" gradientUnits="userSpaceOnUse">
      <stop stop-color="#698091"/>
      <stop offset="1" stop-color="#08101C"/>
    </linearGradient>
    <linearGradient id="paint3_linear_69_272" x1="22.2689" y1="96.5382" x2="10.553" y2="102.833" gradientUnits="userSpaceOnUse">
      <stop stop-color="#EDFD33"/>
      <stop offset="1" stop-color="#091929"/>
    </linearGradient>
    <linearGradient id="paint4_linear_69_272" x1="18.5963" y1="97" x2="3.81712" y2="103.003" gradientUnits="userSpaceOnUse">
      <stop stop-color="#EDFD33"/>
      <stop offset="1" stop-color="#06101A"/>
    </linearGradient>
    <linearGradient id="paint5_linear_69_272" x1="27.0961" y1="143.5" x2="43.0961" y2="163" gradientUnits="userSpaceOnUse">
      <stop stop-color="#EDFD33"/>
      <stop offset="1" stop-color="#06101A"/>
    </linearGradient>
    <linearGradient id="paint6_linear_69_272" x1="57.7786" y1="94.068" x2="68.9177" y2="94.6834" gradientUnits="userSpaceOnUse">
      <stop stop-color="#EDFD33"/>
      <stop offset="0.458333" stop-color="#AFBE00"/>
      <stop offset="1" stop-color="#171900"/>
    </linearGradient>
    <linearGradient id="paint7_linear_69_272" x1="98.0961" y1="104.5" x2="79.8308" y2="77.4486" gradientUnits="userSpaceOnUse">
      <stop stop-color="#06101A"/>
      <stop offset="1" stop-color="#EDFD33"/>
    </linearGradient>
    <linearGradient id="paint8_linear_69_272" x1="27.0961" y1="119.5" x2="21.6794" y2="156.526" gradientUnits="userSpaceOnUse">
      <stop stop-color="#EDFD33"/>
      <stop offset="1" stop-color="#06101A"/>
    </linearGradient>
    <linearGradient id="paint9_linear_69_272" x1="8.09609" y1="76" x2="-0.55977" y2="77.7319" gradientUnits="userSpaceOnUse">
      <stop stop-color="#EDFD33"/>
      <stop offset="1" stop-color="#06101A"/>
    </linearGradient>
    <linearGradient id="paint10_linear_69_272" x1="26.5961" y1="143" x2="41.9824" y2="131.225" gradientUnits="userSpaceOnUse">
      <stop stop-color="#EDFD33"/>
      <stop offset="1" stop-color="#06101A"/>
    </linearGradient>
    <linearGradient id="paint11_linear_69_272" x1="40.5963" y1="76.5" x2="-0.221114" y2="108.91" gradientUnits="userSpaceOnUse">
      <stop stop-color="#EDFD33"/>
      <stop offset="1" stop-color="#06101A"/>
    </linearGradient>
    <linearGradient id="paint12_linear_69_272" x1="60.096" y1="72.5" x2="69.096" y2="76.5" gradientUnits="userSpaceOnUse">
      <stop stop-color="#EDFD33"/>
      <stop offset="1" stop-color="#06101A"/>
    </linearGradient>
    <linearGradient id="paint13_linear_69_272" x1="58.0961" y1="60" x2="68.1103" y2="59.9714" gradientUnits="userSpaceOnUse">
      <stop stop-color="#F2FE66"/>
      <stop offset="1" stop-color="#06101A"/>
    </linearGradient>
    <linearGradient id="paint14_linear_69_272" x1="8.35177" y1="73.3895" x2="16.8663" y2="73.3068" gradientUnits="userSpaceOnUse">
      <stop stop-color="#06101A"/>
      <stop offset="1" stop-color="#EDFD33"/>
    </linearGradient>
    <linearGradient id="paint15_linear_69_272" x1="39.5961" y1="31" x2="25.4743" y2="19.6515" gradientUnits="userSpaceOnUse">
      <stop stop-color="#F2FE66"/>
      <stop offset="1" stop-color="#06101A"/>
    </linearGradient>
    <linearGradient id="paint16_linear_69_272" x1="27.5963" y1="47" x2="59.5963" y2="55" gradientUnits="userSpaceOnUse">
      <stop stop-color="#EDFD33"/>
      <stop offset="1" stop-color="#06101A"/>
    </linearGradient>
    <linearGradient id="paint17_linear_69_272" x1="59.0961" y1="63" x2="72.5431" y2="25.7581" gradientUnits="userSpaceOnUse">
      <stop stop-color="#EDFD33"/>
      <stop offset="0.987" stop-color="#06101A"/>
    </linearGradient>
    <linearGradient id="paint18_linear_69_272" x1="23.0962" y1="52" x2="52.9404" y2="18.6829" gradientUnits="userSpaceOnUse">
      <stop stop-color="#06101A"/>
      <stop offset="1" stop-color="#E9FD00"/>
    </linearGradient>
    <linearGradient id="paint19_linear_69_272" x1="44.5961" y1="27.5" x2="56.0961" y2="108.5" gradientUnits="userSpaceOnUse">
      <stop stop-color="#E9FD00"/>
      <stop offset="1" stop-color="#06101A"/>
    </linearGradient>
    <linearGradient id="paint20_linear_69_272" x1="22.5961" y1="122" x2="53.6333" y2="112.042" gradientUnits="userSpaceOnUse">
      <stop stop-color="#171900"/>
      <stop offset="1" stop-color="#EDFD33"/>
    </linearGradient>
    <linearGradient id="paint21_linear_69_272" x1="28.596" y1="82" x2="-0.403929" y2="98" gradientUnits="userSpaceOnUse">
      <stop stop-color="#EDFD33"/>
      <stop offset="1" stop-color="#06101A"/>
    </linearGradient>
    <linearGradient id="paint22_linear_69_272" x1="38.2436" y1="13.5242" x2="52.5961" y2="7.99999" gradientUnits="userSpaceOnUse">
      <stop stop-color="#F2FE66"/>
      <stop offset="1" stop-color="#06101A"/>
    </linearGradient>
    <linearGradient id="paint23_linear_69_272" x1="45.5961" y1="12" x2="55.7544" y2="14.6478" gradientUnits="userSpaceOnUse">
      <stop stop-color="#EDFD33"/>
      <stop offset="1" stop-color="#06101A"/>
    </linearGradient>
  </defs>
</svg>