<svg xmlns="http://www.w3.org/2000/svg" width="123" height="167" viewBox="0 0 123 167" fill="none">
  <g clip-path="url(#clip0_1_368)">
    <path d="M108.058 94.0922L121.724 52.1659C121.724 52.1659 114.531 43.5573 109.905 38.9513M108.058 94.0922C108.058 94.0922 109.166 136.019 97.3477 138.245M108.058 94.0922C105.473 87.4136 106.098 92.7599 102.678 85.5586M97.3477 138.245C97.3477 132.308 84.7902 114.994 97.3477 104.11C107.394 95.403 105.087 88.1145 102.678 85.5586M97.3477 138.245C92.7496 139.111 89.1577 141.662 86.2676 144.761M37.5152 108.562C39.7312 126.372 27.9124 136.019 30.1284 153.086C32.3444 170.153 72.9715 164.217 76.6648 159.022C78.9213 155.849 81.7292 149.629 86.2676 144.761M37.5152 108.562C35.2991 90.753 0.58158 51.4239 24.2191 32.1303M37.5152 108.562C37.5152 100.894 37.5152 80.3642 37.5152 59.5865C37.5152 38.8089 28.6511 32.625 24.2191 32.1303M24.2191 32.1303L46.7486 1.70584M46.7486 1.70584C46.7486 1.70584 62.8538 8.86678 68.5394 10.2671M46.7486 1.70584C46.7486 1.70584 35.2991 41.7771 49.3339 49.1977C60.5618 55.1342 68.7857 51.6712 71.4941 49.1977M109.905 38.9513C108.028 37.0818 106.227 34.9153 104.734 32.1303C99.5637 22.4836 120.985 14.3209 97.3477 14.3209C93.1533 14.3209 89.5164 14.1099 86.2676 13.7628M109.905 38.9513C103.257 47.5612 91.4383 67.0071 97.3477 75.9118C99.2513 78.7803 101.053 82.1364 102.678 85.5586M86.2676 13.7628C90.4534 17.7541 97.2 28.3795 90.6996 38.9513C82.5742 52.1659 67.0621 75.9118 76.6648 90.0109M86.2676 13.7628C79.0663 12.9934 73.7719 11.5558 68.5394 10.2671M76.6648 90.0109C84.347 101.29 86.2676 131.211 86.2676 144.761M76.6648 90.0109C73.9564 83.3324 69.1304 65.8198 71.4941 49.1977M68.5394 10.2671C76.6648 32.1303 74.4488 28.42 71.4941 49.1977" stroke="url(#paint0_linear_1_368)"/>
    <path d="M88.4038 95.0737C82.4257 80.2735 95.9612 55.0229 92.044 48.4335C89.2577 43.7464 84.109 42.1108 79.1387 38.8473M88.4038 95.0737C94.3819 109.874 92.2518 122.722 81.5421 126.46M88.4038 95.0737C86.7654 91.9255 83.2377 85.8649 79.0232 80.1765M81.5421 126.46C80.698 121.337 66.5206 108.326 76.6884 97.0042C84.8227 87.9464 81.6342 82.0117 79.0232 80.1765M81.5421 126.46C77.3754 127.914 74.3872 130.667 72.1316 133.786M21.5011 110.044C26.1009 125.072 16.4463 135.213 20.9406 149.6C25.4349 163.987 62.4935 152.619 65.2006 147.569C66.8545 144.483 68.5896 138.684 72.1316 133.786M21.5011 110.044C16.9013 95.0171 7.34084 57.0008 7.34084 57.0008M21.5011 110.044C20.4108 103.428 17.4915 85.7118 14.5371 67.7824C11.5826 49.8531 7.34084 57.0008 7.34084 57.0008M7.34084 57.0008C7.34084 57.0008 0.948756 23.9812 18.1773 21.1422M18.1773 21.1422C25.5542 19.9266 30.9646 20.1203 36.4681 20.4546M18.1773 21.1422C14.8239 39.4532 9.9373 52.7551 24.0861 57.0009C35.4052 60.3974 42.5852 56.1449 44.7603 53.5941M79.1387 38.8473C77.1214 37.5228 75.1335 35.9301 73.3448 33.7564C67.1492 26.227 85.9736 15.8901 63.9211 19.524C60.0079 20.1688 56.5849 20.5458 53.5046 20.7457M79.1387 38.8473C74.1607 47.2989 65.8995 65.8961 72.6788 72.6716C74.8626 74.8542 77.0205 77.4733 79.0232 80.1765M53.5046 20.7457C57.9773 23.5463 65.7823 31.678 61.2211 41.7998C55.5195 54.4521 44.424 77.3275 55.3877 88.0175M53.5046 20.7457C46.6768 21.1889 41.533 20.7622 36.4681 20.4546M55.3877 88.0175C64.1586 96.5696 70.2048 122.093 72.1316 133.786M55.3877 88.0175C51.9112 82.6709 44.9186 68.301 44.7603 53.5941M36.4681 20.4546C47.1575 38.0716 44.5625 35.2106 44.7603 53.5941" stroke="url(#paint1_linear_1_368)"/>
    <path d="M96.1622 36.0417C90.9742 26.4995 112.467 18.4253 88.7508 18.4253C65.0773 18.4253 34.849 9.96439 34.849 9.96439L15.378 36.0417C-6.89316 57.4471 26.4951 94.0288 28.7185 111.645C30.9419 129.262 19.0837 138.804 21.3071 155.686C23.5305 172.568 64.2932 166.696 67.9989 161.558C71.7046 156.42 101.35 133.123 101.35 133.123C101.35 133.123 105.056 124.857 101.35 107.241C97.6445 89.6247 117.595 55.5923 117.595 55.5923C117.595 55.5923 101.35 45.5839 96.1622 36.0417Z" fill="url(#paint2_linear_1_368)"/>
    <path d="M77.3509 145.618C74.9515 149.729 67.4895 158.251 66.9136 159.447C65.2341 151.722 62.5228 136.049 67.9934 129.172C73.4639 122.294 83.3492 124.811 86.7083 127.676C88.2679 131.29 89.0117 140.833 83.8291 141.132C78.6465 141.431 78.1906 143.5 77.3509 145.618Z" fill="url(#paint3_linear_1_368)"/>
    <path d="M108.187 63.6263C104.105 66.9278 100.024 88.5712 100.024 89.6717C99.5291 75.6096 99.727 47.9256 104.476 49.6865C109.226 51.4473 111.897 56.5341 112.639 58.8574C112.516 59.3465 111.452 60.985 108.187 63.6263Z" fill="url(#paint4_linear_1_368)"/>
    <path d="M98.5397 91.506C99.4302 90.6256 98.9107 70.3517 98.5397 60.3248C95.5714 65.7051 89.4862 76.9059 90.3767 84.5361C91.4899 94.0739 87.0374 106.179 87.0374 109.848C87.0374 113.516 92.603 104.712 95.2003 100.31C97.7976 95.908 97.4266 92.6065 98.5397 91.506Z" fill="url(#paint5_linear_1_368)"/>
    <path d="M29.1791 106.096C28.7149 105.192 26.1618 100.674 25.9297 99.3189C25.6976 97.9634 31.5002 105.644 31.5002 105.644C31.5002 105.644 39.36 115.358 39.8242 116.488C40.2884 117.617 40.5521 124.394 40.7842 126.202C41.0163 128.009 31.9643 117.617 31.5002 116.488C31.036 115.358 29.6433 107 29.1791 106.096Z" fill="url(#paint6_linear_1_368)"/>
    <path d="M42.2164 118.686C42.2164 118.686 26.6447 97.4893 26.646 97.1836C26.6472 96.878 25.7966 83.0718 27.7406 81.8572C29.6846 80.6425 31.938 82.7912 31.938 82.7912L53.1783 104.579L60.2642 110.415L53.1358 114.97L42.2164 118.686Z" fill="url(#paint7_linear_1_368)"/>
    <path d="M22.5097 55.3171C22.0712 57.7805 21.6326 67.4103 21.8519 67.8582C22.0712 68.3061 21.8519 74.4266 25.1408 68.5301C28.4297 62.6335 34.7882 57.1086 34.7882 57.1086C34.7882 57.1086 35.0075 43.2238 35.0075 42.7759C35.0075 42.328 35.0075 40.9843 34.1305 40.5364C33.2534 40.0885 24.2638 49.9423 23.8252 50.3902C23.3867 50.8381 22.9482 52.8536 22.5097 55.3171Z" fill="url(#paint8_linear_1_368)"/>
    <path d="M26.9261 67.973C27.1396 67.8598 34.3907 58.1487 34.8177 58.7146C35.2447 59.2806 34.8177 71.7321 34.8177 71.7321C34.8177 71.7321 34.9373 80.9893 31.2958 80.9893C27.6543 80.9893 21.7936 76.5266 21.7936 74.6752C21.7936 72.8238 24.1422 72.1849 24.3557 71.7321C24.5692 71.2794 26.7125 68.0862 26.9261 67.973Z" fill="url(#paint9_linear_1_368)"/>
    <path d="M87.264 40.46C87.562 30.4085 93.844 24.2002 96.9478 22.3525C94.4648 22.3525 88.8284 23.2394 86.1467 26.787C82.7947 31.2215 82.0498 40.46 82.7947 47.4812C83.5396 54.5025 77.9528 71.1318 77.9528 87.3915C77.9528 103.651 85.0294 111.412 86.1467 110.672C87.2641 109.933 89.4988 92.9346 89.4988 90.3478V90.3476C89.4988 87.7606 89.4988 77.4138 90.9886 72.6099C92.4784 67.8059 86.8916 53.0243 87.264 40.46Z" fill="url(#paint10_linear_1_368)"/>
    <path d="M89.3841 33.8008C90.6352 28.4696 94.3362 26.1496 96.0303 25.656C94.9878 27.3837 93.1373 31.9497 94.0756 36.3923C95.2484 41.9456 103.458 46.3882 102.677 47.4988C102.051 48.3874 101.373 51.5712 101.113 53.0521L92.9027 68.6012C91.7299 64.282 89.3841 55.1253 89.3841 53.0521C89.3841 50.4606 87.8203 40.4647 89.3841 33.8008Z" fill="url(#paint11_linear_1_368)"/>
    <path d="M83.6329 27.0823C83.6329 25.5704 92.5319 21.0346 93.6443 20.6566L76.9586 22.1686L71.3967 19.9007C60.6437 18.0108 38.5444 14.3821 36.1713 14.9869C33.2049 15.7429 50.6323 19.1447 54.711 20.6566C58.7897 22.1686 59.1605 30.4842 61.0145 27.0823C62.8685 23.6805 81.4081 38.4218 81.7789 36.1539C82.1497 33.886 83.6329 28.5943 83.6329 27.0823Z" fill="url(#paint12_linear_1_368)"/>
    <path d="M84.8497 116.091C84.0772 117.809 83.3596 123.739 83.5179 124.107C83.6762 124.475 87.8088 125.321 88.1862 125.73C88.5636 126.138 100.049 114.608 100.049 114.608C100.049 114.608 100.006 108.553 100.067 108.226C100.128 107.898 100.882 94.708 100.067 94.218C99.2513 93.728 91.4779 112.013 88.1862 112.013C84.8945 112.013 85.6222 114.372 84.8497 116.091Z" fill="url(#paint13_linear_1_368)"/>
    <path d="M97.3846 132.964C102.29 129.242 102.239 120.438 101.6 116.502C97.1234 119.869 89.2262 125.994 88.187 126.88C88.4202 127.496 88.0338 129.743 88.9535 131.175C89.8733 132.606 88.5703 136.304 87.8038 137.974C88.9535 137.855 92.4792 136.686 97.3846 132.964Z" fill="url(#paint14_linear_1_368)"/>
    <path d="M81.9957 124.155L84.5598 111.875C84.5598 111.379 84.2667 109.493 81.6294 107.41C78.9921 105.326 76.8677 85.8268 76.5014 80.9892C72.7164 95.3778 64.5603 131.82 68.0767 126.76C71.5931 121.699 79.0654 123.287 81.9957 124.155Z" fill="url(#paint15_linear_1_368)"/>
    <path d="M54.9202 144.788C54.0484 144.048 52.3508 144.418 52.3508 144.418C54.4308 139.979 58.2801 134.43 58.9578 132.211C59.6354 129.991 58.5907 124.442 59.6919 120.743C60.793 117.044 75.4752 82.6412 75.4752 82.6412C75.4752 82.6412 67.0329 119.633 67.0329 121.853C67.0329 124.072 66.7564 126.244 66.6659 128.141C66.5177 131.25 63.7295 135.54 63.7295 135.54L64.4636 153.666C64.4636 153.666 64.3252 151.94 63.7295 151.077C63.2054 150.317 62.6436 150.131 61.8942 149.597C60.4277 148.552 59.3204 148.426 57.8566 147.377C56.6148 146.487 55.7919 145.528 54.9202 144.788Z" fill="url(#paint16_linear_1_368)"/>
    <path d="M53.3697 115.88C56.6025 114.199 60.0383 110.378 61.1498 110.745C62.2612 111.112 62.2612 111.846 62.2612 111.846C62.2612 111.846 56.951 121.871 57.445 123.583C57.9389 125.294 57.8155 129.451 57.445 131.285C57.0745 133.119 52.7522 139.476 50.7763 143.755L41.8847 129.084C41.8847 129.084 40.0323 120.648 41.1438 119.915C42.2552 119.181 48.6303 118.345 53.3697 115.88Z" fill="url(#paint17_linear_1_368)"/>
    <path d="M39.9627 128.247L30.8973 116.869L30.5346 116.502L29.4468 128.247C27.7546 133.631 24.2251 144.545 23.6449 145.132C23.0647 145.719 23.8866 152.718 24.3701 156.144L34.1608 141.461C34.4026 139.871 34.8861 136.469 34.8861 135.589C34.8861 134.708 38.2705 130.327 39.9627 128.247Z" fill="url(#paint18_linear_1_368)"/>
    <path d="M35.7642 135.858C36.7891 133.091 40.2878 129.716 40.2878 129.716L51.2199 145.614L52.3508 149.227V152.84L35.0102 142C35.0102 142 34.921 138.134 35.7642 135.858Z" fill="url(#paint19_linear_1_368)"/>
    <path d="M35.2694 39.7027C34.0447 39.406 33.4833 27.4617 33.3558 21.5266L49.0473 43.7831C44.7608 48.5312 45.4753 60.1045 46.3683 65.2977L36.8003 61.5883C36.6727 58.3735 36.4941 51.2019 36.8003 48.2344C37.183 44.525 36.8003 40.0737 35.2694 39.7027Z" fill="url(#paint20_linear_1_368)"/>
    <path d="M34.3044 142.93C31.6036 147.67 25.6863 156.628 25.0971 157.526C25.4654 158.025 25.4654 160.371 26.9385 161.269C28.4117 162.167 28.2984 166.509 31.3581 163.14C32.8312 161.518 36.5878 157.901 39.8288 156.403C43.0698 154.906 49.5272 153.409 52.3508 153.409L34.3044 142.93Z" fill="url(#paint21_linear_1_368)"/>
    <path d="M80.5952 52.3982L76.1051 77.6859C74.6084 71.24 71.3157 58.2739 68.6217 55.0014C65.2541 50.9107 66.7508 42.7294 66.0025 39.3826C65.2541 36.0357 58.1449 35.2919 57.3965 33.4325C56.6482 31.5731 60.7641 29.3419 61.5124 28.2262C62.2608 27.1106 79.0985 36.4075 80.5952 38.2669C81.7925 39.7544 81.094 48.3076 80.5952 52.3982Z" fill="url(#paint22_linear_1_368)"/>
    <path d="M64.0371 39.079C61.6793 35.9781 56.1223 33.9147 56.1223 33.9147C54.2378 34.8984 49.9412 41.8087 47.8306 52.7275C45.1923 66.3759 47.4537 64.5315 47.8306 65.2693C48.1321 65.8595 58.7606 57.154 64.0371 52.7275C64.0371 52.7275 67.4743 43.5994 64.0371 39.079Z" fill="url(#paint23_linear_1_368)"/>
    <path d="M62.4474 55.0176C57.2362 59.3531 49.6429 66.6863 49.0473 67.2808L75.4752 77.6859L69.1474 58.7338C69.1474 58.7338 67.6585 50.6822 62.4474 55.0176Z" fill="url(#paint24_linear_1_368)"/>
    <path d="M64.5089 160.94C63.9127 164.486 43.8885 164.634 33.9509 164.264C28.0338 164.044 35.1085 160.332 40.1699 157.676L40.2861 157.615C46.6213 154.291 52.9565 155.029 54.0745 152.813C55.1925 150.596 51.8385 145.055 54.0745 145.425C56.3104 145.794 59.6644 150.227 61.9003 150.966C64.1363 151.705 65.2542 156.507 64.5089 160.94Z" fill="url(#paint25_linear_1_368)"/>
    <path d="M75.2439 82.3698C72.599 89.7847 65.42 105.727 63.5309 109.064C61.6418 112.4 55.2185 104.615 55.2185 104.615C54.085 102.637 55.5208 99.3499 58.2413 93.1214C60.9617 86.8929 59.3748 77.3032 58.2413 72.7307C58.2413 72.7307 77.8057 75.1879 75.2439 82.3698Z" fill="url(#paint26_linear_1_368)"/>
    <path d="M50.0856 41.5843C50.9633 37.4961 55.4498 31.1205 58.1319 28.8087L55.2059 22.9684L42.7707 19.3182L32.5299 18.2232C37.6503 27.4703 49.2078 45.6725 50.0856 41.5843Z" fill="url(#paint27_linear_1_368)"/>
    <path d="M21.7936 50.4801C21.1844 56.4724 19.9661 68.7568 19.9661 69.9553V71.0788C17.2859 68.9565 11.633 64.1127 10.4634 61.7158C9.00144 58.7196 9.36693 54.9743 9.73242 47.8584C10.0248 42.1657 13.5091 39.4941 15.2148 38.8699L21.7936 50.4801Z" fill="url(#paint28_linear_1_368)"/>
    <path d="M24.0782 48.5832C22.0828 50.0554 18.6144 42.9397 17.6642 38.6457L31.9175 19.8749C32.2739 25.7638 33.0578 37.7624 33.3429 38.6457C33.6992 39.7499 26.5725 46.7429 24.0782 48.5832Z" fill="url(#paint29_linear_1_368)"/>
    <path d="M19.0564 71.9874C18.4523 71.3928 14.0225 67.28 11.8831 65.2979L25.0971 95.0292V80.5352L22.0767 77.1904C21.3217 75.7039 19.6605 72.5821 19.0564 71.9874Z" fill="url(#paint30_linear_1_368)"/>
    <path d="M52.9527 102.462L35.0075 82.6807L38.3722 63.6459C43.7309 65.0144 55.2706 70.0655 57.0651 73.3499C59.3083 77.4554 58.9344 81.9342 58.9344 88.2791C58.9344 90.9829 54.9466 99.1028 52.9527 102.462Z" fill="url(#paint31_linear_1_368)"/>
    <path d="M14.9838 12.6814L17.9256 9.7836M17.9036 12.7034L15.0058 9.76158" stroke="white"/>
    <path d="M82.7052 85.3579L85.647 82.4601M85.625 85.38L82.7272 82.4381" stroke="white"/>
    <path d="M13.3321 124.174L16.2739 121.276M16.2519 124.196L13.3541 121.254" stroke="white"/>
    <path d="M116.566 37.4575L119.508 34.5597M119.486 37.4795L116.588 34.5377" stroke="white"/>
  </g>
  <defs>
    <linearGradient id="paint0_linear_1_368" x1="33.3625" y1="11.1451" x2="63.6044" y2="187.991" gradientUnits="userSpaceOnUse">
      <stop stop-color="white"/>
      <stop offset="1" stop-color="white" stop-opacity="0"/>
    </linearGradient>
    <linearGradient id="paint1_linear_1_368" x1="15.4103" y1="29.6593" x2="65.2693" y2="172.281" gradientUnits="userSpaceOnUse">
      <stop stop-color="white"/>
      <stop offset="1" stop-color="white" stop-opacity="0"/>
    </linearGradient>
    <linearGradient id="paint2_linear_1_368" x1="67.3962" y1="0.429594" x2="62.2107" y2="190.246" gradientUnits="userSpaceOnUse">
      <stop stop-color="#698091"/>
      <stop offset="1" stop-color="#08101C"/>
    </linearGradient>
    <linearGradient id="paint3_linear_1_368" x1="69.433" y1="125.434" x2="45.7844" y2="169.736" gradientUnits="userSpaceOnUse">
      <stop stop-color="#EDFD33"/>
      <stop offset="1" stop-color="#06101A"/>
    </linearGradient>
    <linearGradient id="paint4_linear_1_368" x1="1.69739" y1="36.8472" x2="10.2439" y2="92.6299" gradientUnits="userSpaceOnUse">
      <stop stop-color="#EDFD33"/>
      <stop offset="1" stop-color="#06101A"/>
    </linearGradient>
    <linearGradient id="paint5_linear_1_368" x1="1.69739" y1="36.8472" x2="10.2439" y2="92.6299" gradientUnits="userSpaceOnUse">
      <stop stop-color="#EDFD33"/>
      <stop offset="1" stop-color="#06101A"/>
    </linearGradient>
    <linearGradient id="paint6_linear_1_368" x1="36.3489" y1="107.427" x2="27.8069" y2="114.282" gradientUnits="userSpaceOnUse">
      <stop stop-color="#EDFD33"/>
      <stop offset="1" stop-color="#06101A"/>
    </linearGradient>
    <linearGradient id="paint7_linear_1_368" x1="35.9141" y1="114.608" x2="49.0414" y2="101.883" gradientUnits="userSpaceOnUse">
      <stop stop-color="#06101A"/>
      <stop offset="1" stop-color="#E9FD00"/>
    </linearGradient>
    <linearGradient id="paint8_linear_1_368" x1="19.2401" y1="27.4812" x2="50.3033" y2="65.5888" gradientUnits="userSpaceOnUse">
      <stop stop-color="#EDFD33"/>
      <stop offset="1" stop-color="#06101A"/>
    </linearGradient>
    <linearGradient id="paint9_linear_1_368" x1="55.6937" y1="87.3116" x2="50.7323" y2="50.2347" gradientUnits="userSpaceOnUse">
      <stop stop-color="#171900"/>
      <stop offset="1" stop-color="#EDFD33"/>
    </linearGradient>
    <linearGradient id="paint10_linear_1_368" x1="91.7335" y1="20.8744" x2="61.0819" y2="29.0016" gradientUnits="userSpaceOnUse">
      <stop stop-color="#EDFD33"/>
      <stop offset="1" stop-color="#06101A"/>
    </linearGradient>
    <linearGradient id="paint11_linear_1_368" x1="98.226" y1="19.8455" x2="68.6477" y2="32.9612" gradientUnits="userSpaceOnUse">
      <stop offset="0.293438" stop-color="#EDFD33"/>
      <stop offset="0.750088" stop-color="#06101A"/>
    </linearGradient>
    <linearGradient id="paint12_linear_1_368" x1="42.4748" y1="14.6089" x2="89.72" y2="15.6058" gradientUnits="userSpaceOnUse">
      <stop stop-color="#EDFD33"/>
      <stop offset="1" stop-color="#06101A"/>
    </linearGradient>
    <linearGradient id="paint13_linear_1_368" x1="60.3819" y1="126.471" x2="103.386" y2="104.969" gradientUnits="userSpaceOnUse">
      <stop stop-color="#EDFD33"/>
      <stop offset="1" stop-color="#06101A"/>
    </linearGradient>
    <linearGradient id="paint14_linear_1_368" x1="83.205" y1="123.301" x2="94.8622" y2="132.548" gradientUnits="userSpaceOnUse">
      <stop stop-color="#EDFD33"/>
      <stop offset="1" stop-color="#06101A"/>
    </linearGradient>
    <linearGradient id="paint15_linear_1_368" x1="73.571" y1="141.272" x2="93.7128" y2="129.452" gradientUnits="userSpaceOnUse">
      <stop stop-color="#EDFD33"/>
      <stop offset="1" stop-color="#06101A"/>
    </linearGradient>
    <linearGradient id="paint16_linear_1_368" x1="47.212" y1="150.337" x2="63.3136" y2="152.787" gradientUnits="userSpaceOnUse">
      <stop stop-color="#EDFD33"/>
      <stop offset="1" stop-color="#06101A"/>
    </linearGradient>
    <linearGradient id="paint17_linear_1_368" x1="55.5925" y1="98.6416" x2="33.9024" y2="139.332" gradientUnits="userSpaceOnUse">
      <stop stop-color="#EDFD33"/>
      <stop offset="1" stop-color="#06101A"/>
    </linearGradient>
    <linearGradient id="paint18_linear_1_368" x1="56.6432" y1="102.921" x2="28.0641" y2="98.0965" gradientUnits="userSpaceOnUse">
      <stop stop-color="#EDFD33"/>
      <stop offset="1" stop-color="#06101A"/>
    </linearGradient>
    <linearGradient id="paint19_linear_1_368" x1="45.9424" y1="133.69" x2="47.2402" y2="199.834" gradientUnits="userSpaceOnUse">
      <stop stop-color="#EDFD33"/>
      <stop offset="1" stop-color="#06101A"/>
    </linearGradient>
    <linearGradient id="paint20_linear_1_368" x1="33.3558" y1="60.4755" x2="53.4894" y2="50.5077" gradientUnits="userSpaceOnUse">
      <stop stop-color="#EDFD33"/>
      <stop offset="1" stop-color="#06101A"/>
    </linearGradient>
    <linearGradient id="paint21_linear_1_368" x1="44.9849" y1="133.947" x2="21.3999" y2="155.402" gradientUnits="userSpaceOnUse">
      <stop stop-color="#EDFD33"/>
      <stop offset="1" stop-color="#06101A"/>
    </linearGradient>
    <linearGradient id="paint22_linear_1_368" x1="70.1184" y1="61.3233" x2="87.8451" y2="56.0129" gradientUnits="userSpaceOnUse">
      <stop stop-color="#EDFD33"/>
      <stop offset="1" stop-color="#06101A"/>
    </linearGradient>
    <linearGradient id="paint23_linear_1_368" x1="61.3988" y1="47.1943" x2="46.5369" y2="47.3523" gradientUnits="userSpaceOnUse">
      <stop stop-color="#EDFD33"/>
      <stop offset="1" stop-color="#06101A"/>
    </linearGradient>
    <linearGradient id="paint24_linear_1_368" x1="66.5418" y1="48.7003" x2="57.2834" y2="73.5416" gradientUnits="userSpaceOnUse">
      <stop stop-color="#EDFD33"/>
      <stop offset="1" stop-color="#06101A"/>
    </linearGradient>
    <linearGradient id="paint25_linear_1_368" x1="55.1925" y1="142.1" x2="56.2309" y2="161.453" gradientUnits="userSpaceOnUse">
      <stop stop-color="#EDFD33"/>
      <stop offset="1" stop-color="#06101A"/>
    </linearGradient>
    <linearGradient id="paint26_linear_1_368" x1="57.8634" y1="72.7305" x2="16.1882" y2="128.206" gradientUnits="userSpaceOnUse">
      <stop stop-color="#EDFD33"/>
      <stop offset="1" stop-color="#06101A"/>
    </linearGradient>
    <linearGradient id="paint27_linear_1_368" x1="54.8402" y1="23.6984" x2="37.5953" y2="32.4869" gradientUnits="userSpaceOnUse">
      <stop stop-color="#EDFD33"/>
      <stop offset="1" stop-color="#06101A"/>
    </linearGradient>
    <linearGradient id="paint28_linear_1_368" x1="22.5246" y1="40.7425" x2="7.30963" y2="43.5167" gradientUnits="userSpaceOnUse">
      <stop stop-color="#EDFD33"/>
      <stop offset="1" stop-color="#06101A"/>
    </linearGradient>
    <linearGradient id="paint29_linear_1_368" x1="31.9175" y1="20.2429" x2="-6.94511" y2="24.1639" gradientUnits="userSpaceOnUse">
      <stop offset="0.130978" stop-color="#EDFD33"/>
      <stop offset="1" stop-color="#06101A"/>
    </linearGradient>
    <linearGradient id="paint30_linear_1_368" x1="23.9644" y1="60.0949" x2="10.5611" y2="66.3481" gradientUnits="userSpaceOnUse">
      <stop stop-color="#EDFD33"/>
      <stop offset="1" stop-color="#06101A"/>
    </linearGradient>
    <linearGradient id="paint31_linear_1_368" x1="31.6428" y1="79.3216" x2="53.8617" y2="103.072" gradientUnits="userSpaceOnUse">
      <stop stop-color="#EDFD33"/>
      <stop offset="1" stop-color="#06101A"/>
    </linearGradient>
    <clipPath id="clip0_1_368">
      <rect width="122.356" height="166" fill="white" transform="translate(0 0.879883)"/>
    </clipPath>
  </defs>
</svg>