<svg xmlns="http://www.w3.org/2000/svg" width="28" height="28" viewBox="0 0 28 28" fill="none">
  <path d="M11.285 14L13.0925 15.815L16.715 12.185M13.0625 6.83751C13.58 6.39501 14.4275 6.39501 14.9525 6.83751L16.1375 7.85751C16.3625 8.05251 16.7825 8.21001 17.0825 8.21001H18.3575C19.1525 8.21001 19.805 8.86251 19.805 9.65751V10.9325C19.805 11.225 19.9625 11.6525 20.1575 11.8775L21.1775 13.0625C21.62 13.58 21.62 14.4275 21.1775 14.9525L20.1575 16.1375C19.9625 16.3625 19.805 16.7825 19.805 17.0825V18.3575C19.805 19.1525 19.1525 19.805 18.3575 19.805H17.0825C16.79 19.805 16.3625 19.9625 16.1375 20.1575L14.9525 21.1775C14.435 21.62 13.5875 21.62 13.0625 21.1775L11.8775 20.1575C11.6525 19.9625 11.2325 19.805 10.9325 19.805H9.635C8.84 19.805 8.1875 19.1525 8.1875 18.3575V17.075C8.1875 16.7825 8.03 16.3625 7.8425 16.1375L6.83 14.945C6.395 14.4275 6.395 13.5875 6.83 13.07L7.8425 11.8775C8.03 11.6525 8.1875 11.2325 8.1875 10.94V9.65001C8.1875 8.85501 8.84 8.20251 9.635 8.20251H10.9325C11.225 8.20251 11.6525 8.04501 11.8775 7.85001L13.0625 6.83751Z" stroke="white" stroke-width="1.5" stroke-linecap="round" stroke-linejoin="round"/>
</svg>